<svg xmlns="http://www.w3.org/2000/svg" viewBox="0 0 750 500"><g id="freepik--background-complete--inject-14"><rect x="325.26" y="49.13" width="104.74" height="151.82" style="fill:#e0e0e0"></rect><rect x="320.02" y="49.13" width="104.74" height="151.82" style="fill:#f5f5f5"></rect><rect x="333.03" y="65.57" width="78.71" height="118.93" style="fill:#fff"></rect><path d="M411.74,184.5s0-.2,0-.58,0-1,0-1.69c0-1.49,0-3.68,0-6.52,0-5.7,0-14-.07-24.5,0-21-.08-50.67-.13-85.64l.26.26-78.7,0h0l.28-.28c0,44.86,0,86.23-.05,118.93l-.23-.23,57.29.12,15.83.06,4.16,0,1.43,0-1.39,0-4.11,0-15.78.06-57.43.12h-.23v-.23c0-32.7,0-74.07-.06-118.93v-.29h.3l78.7,0H412v.26c-.05,35-.09,64.8-.12,85.81,0,10.47-.06,18.75-.07,24.44,0,2.82,0,5,0,6.47,0,.72,0,1.27,0,1.66S411.74,184.5,411.74,184.5Z" style="fill:#e0e0e0"></path><path d="M425.05,49.13a18.89,18.89,0,0,1-1.87,2.71c-1.21,1.62-2.94,3.84-4.91,6.23s-3.81,4.51-5.18,6a17.54,17.54,0,0,1-2.3,2.35,19.31,19.31,0,0,1,2-2.61c1.4-1.71,3.13-3.8,5-6.12s3.63-4.42,5-6.12A19.3,19.3,0,0,1,425.05,49.13Z" style="fill:#e0e0e0"></path><path d="M412.14,184.12a98.27,98.27,0,0,0,13.73,17.17" style="fill:#fff"></path><path d="M425.87,201.29a16.22,16.22,0,0,1-2.39-2.18,76.51,76.51,0,0,1-5.18-5.84,77.65,77.65,0,0,1-4.56-6.34,17.07,17.07,0,0,1-1.6-2.81,20.12,20.12,0,0,1,1.93,2.58c1.16,1.62,2.78,3.84,4.68,6.21s3.7,4.44,5,5.92A21.36,21.36,0,0,1,425.87,201.29Z" style="fill:#e0e0e0"></path><path d="M320,200.82q6.86-8.46,13.72-16.93" style="fill:#fff"></path><path d="M333.72,183.89a105.14,105.14,0,0,1-6.64,8.65,105.64,105.64,0,0,1-7.08,8.28,104.11,104.11,0,0,1,6.64-8.64A107,107,0,0,1,333.72,183.89Z" style="fill:#e0e0e0"></path><path d="M320,49.13a93.82,93.82,0,0,1,6.65,8,94.47,94.47,0,0,1,6.22,8.31,92.46,92.46,0,0,1-6.66-8A92.37,92.37,0,0,1,320,49.13Z" style="fill:#e0e0e0"></path><rect x="360.86" y="89.72" width="26.36" height="74.83" style="fill:#e0e0e0"></rect><polygon points="217.67 70.6 217.67 163.62 84.07 163.62 79.26 71.25 217.67 70.6" style="fill:#e0e0e0"></polygon><rect x="99.97" y="50.54" width="92.17" height="133.6" transform="translate(28.72 263.39) rotate(-90)" style="fill:#fff"></rect><path d="M213.49,164.05H78.62V70.62H213.49Zm-133.6-1.26H212.22V71.88H79.89Z" style="fill:#e0e0e0"></path><rect x="93.73" y="82.7" width="104.66" height="69.27" style="fill:#fff"></rect><path d="M198.39,82.7l-.52,0-1.49,0-5.75,0-21.56.08L93.73,83l.3-.3c0,21.16,0,44.61,0,69.26h0l-.33-.33,104.66.06-.27.27c.06-21.08.11-38.36.14-50.4,0-6,.05-10.72.07-13.94q0-2.38,0-3.66c0-.83,0-1.27,0-1.27s0,.4,0,1.22,0,2,0,3.61c0,3.21,0,7.89.07,13.88,0,12.07.08,29.41.14,50.56v.26h-.26l-104.66.07H93.4V152h0c0-24.65,0-48.1,0-69.26v-.3h.3l75.54.15,21.49.08,5.69,0,1.46,0Z" style="fill:#e0e0e0"></path><path d="M79.26,71a11.52,11.52,0,0,1,2.3,1.49c1.36,1,3.22,2.38,5.23,4s3.78,3.13,5,4.27a10.64,10.64,0,0,1,1.92,2c-.13.14-3.34-2.51-7.35-5.71S79.14,71.14,79.26,71Z" style="fill:#e0e0e0"></path><path d="M212.86,71.25c.11.14-3,2.82-7,6s-7.33,5.61-7.44,5.47,3-2.82,7-6S212.74,71.11,212.86,71.25Z" style="fill:#e0e0e0"></path><path d="M212.75,163.43l-14.9-12.07" style="fill:#fff"></path><path d="M197.85,151.36c.12-.14,3.55,2.45,7.66,5.78s7.35,6.15,7.24,6.29-3.54-2.44-7.66-5.78S197.74,151.5,197.85,151.36Z" style="fill:#e0e0e0"></path><path d="M79.26,163.42c-.11-.14,3-2.8,6.95-5.92s7.26-5.55,7.37-5.41-3,2.8-7,5.92S79.37,163.56,79.26,163.42Z" style="fill:#e0e0e0"></path><rect x="136.31" y="82.95" width="23.19" height="65.85" transform="translate(32.03 263.78) rotate(-90)" style="fill:#e0e0e0"></rect><rect x="531.34" y="61.04" width="77.02" height="80.28" style="fill:#e0e0e0"></rect><rect x="526.13" y="61.04" width="77.02" height="80.28" style="fill:#fafafa"></rect><path d="M603.17,141.34H526.1V61h77.07Zm-77,0h77V61.06h-77Z" style="fill:#e0e0e0"></path><rect x="536.48" y="71.83" width="56.31" height="58.7" style="fill:#fff"></rect><path d="M536.48,130.92a9.71,9.71,0,0,1-1.39,1.61c-.9.95-2.16,2.24-3.58,3.63s-2.72,2.64-3.68,3.52a9.15,9.15,0,0,1-1.62,1.36,8.75,8.75,0,0,1,1.38-1.61c.9-1,2.16-2.24,3.58-3.64s2.73-2.64,3.69-3.52A8.26,8.26,0,0,1,536.48,130.92Z" style="fill:#e0e0e0"></path><path d="M592.79,130.77a9.49,9.49,0,0,1,1.62,1.39c1,.9,2.23,2.17,3.63,3.58s2.63,2.72,3.52,3.68a8.72,8.72,0,0,1,1.35,1.63,8.75,8.75,0,0,1-1.61-1.38c-.95-.9-2.23-2.17-3.63-3.59s-2.65-2.73-3.53-3.69A8.9,8.9,0,0,1,592.79,130.77Z" style="fill:#e0e0e0"></path><path d="M592.64,72A8.56,8.56,0,0,1,594,70.37c.9-1,2.16-2.23,3.58-3.63s2.71-2.64,3.67-3.52a9.69,9.69,0,0,1,1.63-1.36,8.75,8.75,0,0,1-1.38,1.61c-.9,1-2.17,2.24-3.59,3.64s-2.72,2.64-3.68,3.53A9.32,9.32,0,0,1,592.64,72Z" style="fill:#e0e0e0"></path><path d="M536.33,72.13a9.06,9.06,0,0,1-1.62-1.39c-1-.9-2.23-2.16-3.63-3.58s-2.64-2.72-3.52-3.68a8.72,8.72,0,0,1-1.35-1.63,10.48,10.48,0,0,1,1.6,1.39c1,.9,2.24,2.16,3.64,3.58s2.65,2.73,3.53,3.69A8.9,8.9,0,0,1,536.33,72.13Z" style="fill:#e0e0e0"></path><path d="M592.64,130.53a1.79,1.79,0,0,1,0-.29c0-.2,0-.47,0-.82,0-.73,0-1.79,0-3.17,0-2.78,0-6.82-.06-12,0-10.28-.06-24.93-.11-42.46l.22.22-56.15,0h0l.25-.25c0,21.54,0,41.7,0,58.7l-.21-.22,40.66.11,11.42.06,3,0,.78,0h-.73l-3,0-11.37,0-40.8.11h-.21v-.21c0-17,0-37.16,0-58.7v-.25h.26l56.15,0h.21v.22c0,17.59-.08,32.29-.11,42.6,0,5.12,0,9.14,0,11.91,0,1.36,0,2.4,0,3.13,0,.34,0,.6,0,.8S592.64,130.53,592.64,130.53Z" style="fill:#e0e0e0"></path><rect x="555.24" y="91.78" width="18.79" height="18.79" style="fill:#ebebeb"></rect><path d="M243.12,253.39s-8.13-.58-7.38,17.64S238.35,299,238.35,299s-.24,4-3.37,3.25-9-4.73-11.93-1.79-1.94,7.72,2.06,13.23,12.32,17.9,13.07,19,1,3.17-1.19,3-17.19-5.28-19.18,2S229.5,358.4,231,359.9s1.55,2.46.95,3.37-5.46-1.27-9.78-2.54-9.55-2-10.34,2.3,5.22,16.8,27.76,30l10.84,5.41,10.27-6.55c21.11-15.34,25.85-28.41,24.63-32.58s-6.35-2.95-10.52-1.25-8.8,4.35-9.48,3.5-.7-1.8.6-3.44,13.56-16.46,10.86-23.48-17.09-.47-19.28-.05-2.1-1.66-1.48-2.83,7.67-14.36,11.1-20.24,4-10.64.72-13.37-8.65,1.87-11.68,3-3.68-2.89-3.68-2.89.88-9.85-.2-28.06-9.3-16.74-9.3-16.74" style="fill:#ebebeb"></path><path d="M243.76,269.72s0,.13,0,.38,0,.64.09,1.12c.07,1,.17,2.45.29,4.3.25,3.74.57,9.15.94,15.84.74,13.37,1.61,31.86,2.5,52.28s1.72,38.91,2.39,52.29c.34,6.67.61,12.08.8,15.84.09,1.86.17,3.31.22,4.31,0,.48,0,.85,0,1.12a3.64,3.64,0,0,1,0,.38s0-.13,0-.38-.05-.64-.09-1.12c-.07-1-.16-2.45-.29-4.3-.25-3.74-.57-9.15-.94-15.84-.74-13.37-1.61-31.86-2.5-52.28s-1.72-38.91-2.38-52.29c-.34-6.67-.62-12.08-.81-15.84-.09-1.86-.16-3.3-.21-4.31,0-.48,0-.85-.05-1.12A3.64,3.64,0,0,1,243.76,269.72Z" style="fill:#e0e0e0"></path><path d="M231.07,306.26a3.47,3.47,0,0,1,.67.56c.42.38,1,.95,1.72,1.66,1.44,1.41,3.36,3.42,5.44,5.68l5.31,5.81,1.61,1.75a3.47,3.47,0,0,1,.56.67,3.67,3.67,0,0,1-.68-.56c-.41-.38-1-.95-1.71-1.66-1.41-1.43-3.31-3.47-5.39-5.73l-5.35-5.76-1.62-1.74A3.67,3.67,0,0,1,231.07,306.26Z" style="fill:#e0e0e0"></path><path d="M247.46,322c-.08-.08,3.88-4.24,8.86-9.28s9.07-9.06,9.15-9-3.88,4.23-8.86,9.28S247.54,322.11,247.46,322Z" style="fill:#e0e0e0"></path><path d="M247.42,353.45a3.81,3.81,0,0,1,.75-.48l2.12-1.19c1.79-1,4.26-2.4,6.93-4s5-3.2,6.74-4.34l2-1.35a3.61,3.61,0,0,1,.77-.45,3.47,3.47,0,0,1-.67.58c-.46.36-1.12.86-1.95,1.46-1.67,1.21-4,2.81-6.7,4.45s-5.17,3-7,4c-.92.47-1.66.83-2.18,1.07A3.3,3.3,0,0,1,247.42,353.45Z" style="fill:#e0e0e0"></path><path d="M229.45,342.45a3.7,3.7,0,0,1,.75.36c.47.25,1.14.62,2,1.09,1.65.94,3.91,2.26,6.4,3.74s4.74,2.84,6.35,3.84l1.9,1.21c.44.29.68.46.66.49a3.51,3.51,0,0,1-.75-.35c-.47-.25-1.14-.63-2-1.1-1.65-.93-3.92-2.25-6.41-3.74s-4.73-2.84-6.34-3.84c-.81-.5-1.46-.91-1.9-1.2A3.09,3.09,0,0,1,229.45,342.45Z" style="fill:#e0e0e0"></path><path d="M225.89,370.19a5.84,5.84,0,0,1,1,.46l2.53,1.39c2.12,1.2,5,2.87,8.24,4.73s6.11,3.58,8.19,4.84l2.46,1.5a7,7,0,0,1,.87.6,4.92,4.92,0,0,1-.95-.46l-2.53-1.39c-2.12-1.19-5-2.86-8.25-4.73s-6.1-3.58-8.18-4.83l-2.46-1.51A4.16,4.16,0,0,1,225.89,370.19Z" style="fill:#e0e0e0"></path><path d="M248.67,383.23a6.65,6.65,0,0,1,.94-.63l2.63-1.6c2.23-1.36,5.29-3.24,8.62-5.41s6.3-4.21,8.44-5.7l2.53-1.76a5,5,0,0,1,1-.6,6,6,0,0,1-.86.73c-.58.46-1.41,1.1-2.46,1.87-2.1,1.56-5,3.64-8.38,5.81s-6.43,4-8.7,5.31c-1.13.64-2.06,1.16-2.7,1.49A5.78,5.78,0,0,1,248.67,383.23Z" style="fill:#e0e0e0"></path><polygon points="264.96 401.95 234.96 401.95 244.75 476.07 255.17 476.07 264.96 401.95" style="fill:#e0e0e0"></polygon><path d="M236.52,411.06s0,.1.16.26a1.83,1.83,0,0,0,.72.52,3.61,3.61,0,0,0,3.17-.39c1.21-.67,2.27-2,3.89-2.56A8.58,8.58,0,0,1,250,409a24,24,0,0,1,5.14,2.49,34.5,34.5,0,0,0,4.17,2.24,11.5,11.5,0,0,0,3.08.89,5.22,5.22,0,0,0,.87.06,1.09,1.09,0,0,0,.31,0,16,16,0,0,1-4.12-1.25,39.9,39.9,0,0,1-4.08-2.31,23,23,0,0,0-5.23-2.57,8.81,8.81,0,0,0-5.82-.06,7.47,7.47,0,0,0-2.19,1.36,17.87,17.87,0,0,1-1.72,1.33,3.55,3.55,0,0,1-2.92.5A3,3,0,0,1,236.52,411.06Z" style="fill:#f5f5f5"></path><path d="M237.61,424.71s.24-.31.71-.8a6.75,6.75,0,0,1,2.4-1.51,10.53,10.53,0,0,1,4.17-.63,43.19,43.19,0,0,1,5.22.71,18,18,0,0,0,5.34.22,14.83,14.83,0,0,0,4.21-1.2,13.73,13.73,0,0,0,2.53-1.5,3.42,3.42,0,0,0,.8-.73,26.09,26.09,0,0,1-3.47,1.91,15.05,15.05,0,0,1-4.12,1.07,18.3,18.3,0,0,1-5.21-.26,40.5,40.5,0,0,0-5.29-.67,10.56,10.56,0,0,0-4.31.75,6.33,6.33,0,0,0-2.41,1.72,3.87,3.87,0,0,0-.45.66C237.64,424.61,237.6,424.7,237.61,424.71Z" style="fill:#f5f5f5"></path><path d="M261.56,432a2.38,2.38,0,0,0-.82-.43,8.68,8.68,0,0,0-2.49-.53,15.68,15.68,0,0,0-3.76.21c-1.4.23-2.9.61-4.47,1a19,19,0,0,1-4.47.5A10,10,0,0,1,242,432a8.33,8.33,0,0,1-2.69-2,2.64,2.64,0,0,0,.51.79,6.35,6.35,0,0,0,2,1.53,9.42,9.42,0,0,0,3.67.9,18.13,18.13,0,0,0,4.59-.47c1.59-.34,3.08-.74,4.45-1a17.18,17.18,0,0,1,3.66-.31A13.57,13.57,0,0,1,261.56,432Z" style="fill:#f5f5f5"></path><path d="M240.27,442.3a4.86,4.86,0,0,1,2.91-.3,14.45,14.45,0,0,1,3,1.14,11.44,11.44,0,0,0,4,1.09,11.93,11.93,0,0,0,7.18-1.66,10.35,10.35,0,0,0,1.78-1.38c.37-.39.56-.61.53-.63a25.32,25.32,0,0,1-2.49,1.71,12.28,12.28,0,0,1-7,1.47c-2.84-.16-5-1.85-7-2.08a4.51,4.51,0,0,0-2.26.2C240.46,442.06,240.25,442.28,240.27,442.3Z" style="fill:#f5f5f5"></path><path d="M241.94,456.52a5.72,5.72,0,0,0,2.5-.49c1.51-.51,3.37-1.66,5.55-2.53a9.13,9.13,0,0,1,3.19-.67,5.86,5.86,0,0,1,2.56.59,5.67,5.67,0,0,1,1.86,1.6,1.39,1.39,0,0,0-.29-.64,4.23,4.23,0,0,0-1.4-1.27,5.93,5.93,0,0,0-2.72-.73,9,9,0,0,0-3.37.66c-2.26.9-4.07,2.09-5.51,2.66S241.92,456.44,241.94,456.52Z" style="fill:#f5f5f5"></path><path d="M243.41,463.14a7,7,0,0,0,1.9.62,34.87,34.87,0,0,0,9.56.94,6.6,6.6,0,0,0,2-.24c0-.14-3,0-6.75-.39S243.44,463,243.41,463.14Z" style="fill:#f5f5f5"></path></g><g id="freepik--Plant--inject-14"><path d="M658.8,354.16c.52-2.52.16-5.14.73-9.9s2.84-6.65,4.09-10,3-11.24,3-11.24H665.2s-4.48,14.64-5.77,17.95-1.25,6.32-1.47,9.34a67.94,67.94,0,0,1-1.43,8s-1.65-17-2.33-22.93-.38-17.55-.38-17.55l-1.57-.67V326s.65,8.38,1.17,13.19A295.46,295.46,0,0,1,654.87,371a73.33,73.33,0,0,0,2.78,21.3c.05.37.47,11.68.24,17.3s-.36,27.79-.12,28.78l5,1.2s-2.9-19.57-2.37-33.72-.65-13.37-2.5-20.13-1.28-25.11-1.28-25.11A46.6,46.6,0,0,0,658.8,354.16Z" style="fill:#263238"></path><path d="M664.55,324.83A25.86,25.86,0,0,0,676.24,317c4.54-5.76,7.5-10.47,12.21-12.74-9.07-4-14.65,4-19.19,6.46s-9.07,4.19-8.37,8.9S664.55,324.83,664.55,324.83Z" style="fill:#E28E04"></path><path d="M693.74,253.34a44.48,44.48,0,0,1-1.62,5.11,56.08,56.08,0,0,1-2.81,6.24,38.43,38.43,0,0,1-3.71,5.87,15,15,0,0,1-4.46,4.08,7.48,7.48,0,0,1-1.06.47A68.58,68.58,0,0,0,668.56,280a20.81,20.81,0,0,1-2.46-12.65,18.63,18.63,0,0,1,1.22-4.38,26.13,26.13,0,0,1,2-3.8l1-1.67c.31-.52.62-1,1-1.56a35.78,35.78,0,0,1,6.47-7.76c.57-.51,1.17-1,1.81-1.5a11.52,11.52,0,0,1,2.49-1.43,27.19,27.19,0,0,1,10.25-1.71s1.05,1.22,1.92,5.41c0,.09,0,.18,0,.28A13,13,0,0,1,693.74,253.34Z" style="fill:#E28E04"></path><path d="M674.5,294.47s12.56-8.55,28.43-7c-8.55-8.38-15.52-8-21.46-5.06S671.88,287.67,674.5,294.47Z" style="fill:#E28E04"></path><path d="M660,280.87s-6.11-7.86-14.48-9.95a74.93,74.93,0,0,0-18-1.74s4.71-6.81,15-6.28S656,266,657.75,269.53,661.41,276.85,660,280.87Z" style="fill:#E28E04"></path><path d="M658.8,306.34c0,1.07-.07,2.09-.14,3.06-.37,5.17-1.56,8.74-6,9.32,0,0-6.28-1.57-8.73-7.67s-1-7.15-4.71-11.17-5.58-14-5.58-14h0a20.82,20.82,0,0,1,12.87,1.23l.29.14C653.21,290.39,659,299.63,658.8,306.34Z" style="fill:#E28E04"></path><path d="M642.22,324.65s-1.05,1.4-7.5,1.92-8,5.76-15.36,7-8.37,1.05-11.51-.87c1.42-4.4,5-5.73,8.2-8.26a15.15,15.15,0,0,0,2.83-2.83c.11-.13.21-.28.31-.42a11.16,11.16,0,0,1,6-3.95h0a20.54,20.54,0,0,1,5.75-.86,16.08,16.08,0,0,1,6.56,1.14C642.05,319.6,642.05,322.21,642.22,324.65Z" style="fill:#E28E04"></path><path d="M676.42,447.58a75.58,75.58,0,0,1-6,24.42,5.51,5.51,0,0,1-5.06,3.32h-10a5.51,5.51,0,0,1-5.06-3.32,75.33,75.33,0,0,1-6-24.42q-.4-4.95-.32-10.16h32.66A99.87,99.87,0,0,1,676.42,447.58Z" style="fill:#e0e0e0"></path><path d="M676.81,447.58a77.34,77.34,0,0,1-6.11,25,5.65,5.65,0,0,1-5.18,3.39H655.28a5.67,5.67,0,0,1-5.18-3.39,77.59,77.59,0,0,1-6.1-25Z" style="fill:#455a64"></path><path d="M679.45,398a18.5,18.5,0,0,0-13.86-5.85l-.14.13c-1.05,5.27,1.36,10.87,5.42,14.39s9.54,5.11,14.91,5.21A24.6,24.6,0,0,0,679.45,398Z" style="fill:#E28E04"></path><path d="M648.32,403.45a12.52,12.52,0,0,0-6.3.77,34.62,34.62,0,0,0-12.86,7.85c4.32,1.49,8.85,2.87,13.39,2.36s9.13-3.37,10.26-7.79C652.4,404.54,650.42,403.86,648.32,403.45Z" style="fill:#E28E04"></path><path d="M617.83,376.24a9.34,9.34,0,0,0,4.46,3.52c1.77.78,3.64,1.33,5.32,2.27,3,1.71,5.19,4.57,8,6.59a17.14,17.14,0,0,0,14,2.64,16.37,16.37,0,0,0-4.21-13.53,19.08,19.08,0,0,0-13-5.92,22.78,22.78,0,0,0-13.82,4.1" style="fill:#E28E04"></path><path d="M662.38,381.78c-1.75-4.31,0-10.07,3.38-13.26,2.22-2.08,5.14-3.21,8-4.25q3.57-1.31,7.19-2.54a2.43,2.43,0,0,1,1.75-.13c.81.38.92,1.48.87,2.38a23,23,0,0,1-2.93,10.42,15.64,15.64,0,0,1-8.16,6.94c-3.44,1.18-7.1,2.51-10.1.44" style="fill:#E28E04"></path><path d="M648.71,365.64a7.19,7.19,0,0,0-3.56-5.16,14.21,14.21,0,0,0-6.2-1.75,28.08,28.08,0,0,0-14.88,2.91,50,50,0,0,0,13.41,6.46,15.2,15.2,0,0,0,6.1.87,6.41,6.41,0,0,0,5.06-3.15" style="fill:#E28E04"></path><path d="M648.7,342.83a31,31,0,0,0-12.15-3.67c.56,4.47,1.51,9.2,4.68,12.41a11.39,11.39,0,0,0,7.17,3.31,12.62,12.62,0,0,0,8.08-2.11v-.22A16.35,16.35,0,0,0,648.7,342.83Z" style="fill:#E28E04"></path><path d="M671.49,333.69c-2.3,1.52-2.49,5-1.15,7.44s3.76,4,6.09,5.47a68.6,68.6,0,0,0,9.41,5.31c4.24,1.83,8.91,2.83,12.67,5.51a29.78,29.78,0,0,0-2.3-14.85,20,20,0,0,0-10.57-10.39,15.1,15.1,0,0,0-14.43,1.72" style="fill:#E28E04"></path><path d="M671.68,334.68c0,.08-1.12.57-2.82,1.68a24.22,24.22,0,0,0-2.8,2.16,25.32,25.32,0,0,0-2.93,3.18,25.07,25.07,0,0,0-2.31,3.66,24,24,0,0,0-1.36,3.27c-.63,1.92-.8,3.17-.88,3.15a3.64,3.64,0,0,1,.07-.88,9.18,9.18,0,0,1,.19-1,13,13,0,0,1,.33-1.34,21.3,21.3,0,0,1,1.3-3.36,23,23,0,0,1,2.32-3.74,24.12,24.12,0,0,1,3-3.22,21.22,21.22,0,0,1,2.9-2.12c.43-.28.85-.48,1.21-.67a6.31,6.31,0,0,1,.94-.44A3.84,3.84,0,0,1,671.68,334.68Z" style="fill:#263238"></path><path d="M693.42,348.65a5.55,5.55,0,0,1-.71-.89c-.45-.59-1.09-1.43-1.94-2.43a42.94,42.94,0,0,0-7.49-6.94,26.56,26.56,0,0,0-4.82-2.87,11.2,11.2,0,0,0-4.4-1,8.49,8.49,0,0,0-3,.51c-.68.26-1,.48-1,.45s.07-.08.23-.19a4.65,4.65,0,0,1,.75-.41,7.71,7.71,0,0,1,3.07-.66,11.15,11.15,0,0,1,4.57,1,25.46,25.46,0,0,1,4.91,2.89,38.56,38.56,0,0,1,7.47,7.08c.83,1,1.44,1.91,1.84,2.53A6.24,6.24,0,0,1,693.42,348.65Z" style="fill:#263238"></path><path d="M680.74,306.45c0,.06-1.17.79-3,2.15a42.28,42.28,0,0,0-11.65,13.26c-1.11,2-1.68,3.29-1.74,3.26a4.09,4.09,0,0,1,.33-.94,25.68,25.68,0,0,1,1.15-2.46,37.57,37.57,0,0,1,5.07-7.39,38.54,38.54,0,0,1,6.66-6,25.88,25.88,0,0,1,2.3-1.45A3.8,3.8,0,0,1,680.74,306.45Z" style="fill:#263238"></path><path d="M642,290.17a1.42,1.42,0,0,1,.3.16c.18.12.46.28.79.53a22.85,22.85,0,0,1,2.7,2.23,25.73,25.73,0,0,1,7.78,21,23.3,23.3,0,0,1-.59,3.45c-.09.4-.2.71-.26.91s-.11.32-.12.31a8.71,8.71,0,0,1,.22-1.26,29.12,29.12,0,0,0,.45-3.44,26.57,26.57,0,0,0-7.7-20.78A28.15,28.15,0,0,0,643,291,9.55,9.55,0,0,1,642,290.17Z" style="fill:#263238"></path><path d="M622.34,322.11a3.06,3.06,0,0,1,.6-.67,10.45,10.45,0,0,1,2-1.48,12,12,0,0,1,15,2.2,11.3,11.3,0,0,1,1.47,2,3.4,3.4,0,0,1,.38.82,24.21,24.21,0,0,0-2.07-2.59,12.13,12.13,0,0,0-14.61-2.14A22.91,22.91,0,0,0,622.34,322.11Z" style="fill:#263238"></path><path d="M656.15,352.18a66.63,66.63,0,0,1-6.64-3.13,60.46,60.46,0,0,1-6.44-3.51,66.63,66.63,0,0,1,6.64,3.13A60.46,60.46,0,0,1,656.15,352.18Z" style="fill:#263238"></path><path d="M631,360.68a2.66,2.66,0,0,1,.74-.07,20.13,20.13,0,0,1,2,0,30,30,0,0,1,6.56,1.1,30.36,30.36,0,0,1,6.16,2.5c.75.41,1.34.77,1.73,1a2.43,2.43,0,0,1,.59.45c0,.06-.94-.48-2.46-1.22a36.19,36.19,0,0,0-12.61-3.57C632,360.77,631,360.75,631,360.68Z" style="fill:#263238"></path><path d="M680.78,363.46a4.08,4.08,0,0,1-.85.59c-.57.35-1.38.87-2.36,1.54a52.5,52.5,0,0,0-13.2,12.89c-.69,1-1.23,1.76-1.6,2.32a5.65,5.65,0,0,1-.6.84,4.27,4.27,0,0,1,.46-.93c.32-.59.83-1.41,1.49-2.4a46.66,46.66,0,0,1,6-7.17,45.73,45.73,0,0,1,7.31-5.8c1-.64,1.84-1.13,2.44-1.43A6.15,6.15,0,0,1,680.78,363.46Z" style="fill:#263238"></path><path d="M623.8,375.94a9.43,9.43,0,0,1,1.25-.05c.81,0,2,0,3.42.1a32.82,32.82,0,0,1,5,.65,18.75,18.75,0,0,1,5.83,2.25,20.77,20.77,0,0,1,4.73,4.08,36.27,36.27,0,0,1,3.06,4.07c.79,1.21,1.39,2.21,1.8,2.91a7.9,7.9,0,0,1,.59,1.11,6,6,0,0,1-.73-1c-.45-.67-1.09-1.65-1.91-2.83a42.72,42.72,0,0,0-3.1-4,21.06,21.06,0,0,0-4.66-4,18.91,18.91,0,0,0-5.69-2.24,37.13,37.13,0,0,0-5-.73c-1.43-.12-2.6-.18-3.4-.23A7,7,0,0,1,623.8,375.94Z" style="fill:#263238"></path><path d="M652.85,406.37a22.92,22.92,0,0,1-2.48.18,34.62,34.62,0,0,0-5.9.92,35.2,35.2,0,0,0-5.66,1.91,23,23,0,0,1-2.29,1,2.42,2.42,0,0,1,.55-.39c.37-.23.92-.53,1.61-.88a29.37,29.37,0,0,1,5.69-2.05,28.46,28.46,0,0,1,6-.81c.78,0,1.4,0,1.84,0A1.91,1.91,0,0,1,652.85,406.37Z" style="fill:#263238"></path><path d="M682.19,409.64c-.09.08-4-3.66-8.7-8.36s-8.48-8.58-8.4-8.67,4,3.66,8.7,8.36S682.27,409.56,682.19,409.64Z" style="fill:#263238"></path><path d="M666.22,392.65a19.06,19.06,0,0,0-3.45.49,18.27,18.27,0,0,0-3.14,1.5,6.68,6.68,0,0,1,6.59-2Z" style="fill:#263238"></path><path d="M660.13,402.35c-.06,0-.46-.76-1.27-1.93a26.11,26.11,0,0,0-3.69-4.16c-1.6-1.48-3.16-2.69-4.29-3.57a14.79,14.79,0,0,1-1.79-1.49,11.07,11.07,0,0,1,2,1.24,43,43,0,0,1,4.41,3.51,21.82,21.82,0,0,1,3.64,4.3,12.68,12.68,0,0,1,.81,1.51C660.08,402.13,660.16,402.34,660.13,402.35Z" style="fill:#263238"></path><path d="M658.51,406.15a7.52,7.52,0,0,1-6-.24c0-.13,1.34.26,3,.32S658.48,406,658.51,406.15Z" style="fill:#263238"></path><path d="M664.67,378.35c.06,0-.49.85-1.25,2.23a31.36,31.36,0,0,0-3.76,11.61c-.19,1.57-.22,2.55-.29,2.55a2.16,2.16,0,0,1-.06-.69,16.53,16.53,0,0,1,.05-1.89,26.3,26.3,0,0,1,1.2-6.09,25.7,25.7,0,0,1,2.6-5.64,16.7,16.7,0,0,1,1.06-1.56C664.49,378.52,664.65,378.33,664.67,378.35Z" style="fill:#263238"></path><path d="M655.94,373.67c-.06,0-.25-.61-.75-1.52a12.48,12.48,0,0,0-2.57-3.15,31.85,31.85,0,0,0-3.28-2.47,7.63,7.63,0,0,1-1.39-1,6.64,6.64,0,0,1,1.55.77,20.09,20.09,0,0,1,3.4,2.41,10.33,10.33,0,0,1,2.55,3.32A3.71,3.71,0,0,1,655.94,373.67Z" style="fill:#263238"></path><path d="M654.61,337.76c-.06,0-.58-.95-1.56-2.46a38.6,38.6,0,0,0-4.32-5.51,37.88,37.88,0,0,0-5.28-4.59c-1.46-1.05-2.42-1.62-2.38-1.68a2.63,2.63,0,0,1,.71.33,20.67,20.67,0,0,1,1.84,1.1,31.59,31.59,0,0,1,9.69,10.19c.46.78.8,1.43,1,1.89A2.78,2.78,0,0,1,654.61,337.76Z" style="fill:#263238"></path><path d="M685.47,289.29a2.36,2.36,0,0,1-.49.24l-1.44.62c-1.24.53-3,1.28-5.21,2.36a31.78,31.78,0,0,0-7,4.65,35.7,35.7,0,0,0-6.46,8,103,103,0,0,0-4.8,9.23c-1.36,2.88-2.6,5.48-3.64,7.69s-1.88,3.9-2.49,5.17l-.7,1.39a2,2,0,0,1-.27.48,3.37,3.37,0,0,1,.2-.51l.62-1.43c.58-1.28,1.38-3.06,2.37-5.23l3.56-7.73a93.89,93.89,0,0,1,4.79-9.28,35,35,0,0,1,6.56-8.12,31.08,31.08,0,0,1,7.16-4.63c2.19-1.05,4-1.76,5.29-2.25l1.47-.54A2.55,2.55,0,0,1,685.47,289.29Z" style="fill:#263238"></path><path d="M656.59,273.35a8.28,8.28,0,0,1,.64,1.08c.39.71.91,1.76,1.51,3.07a71.61,71.61,0,0,1,6,21.71c.15,1.44.24,2.61.27,3.42a6.32,6.32,0,0,1,0,1.25,7.9,7.9,0,0,1-.17-1.24c-.08-.8-.22-2-.41-3.39a82.9,82.9,0,0,0-6-21.63c-.57-1.32-1.05-2.38-1.39-3.11A7.13,7.13,0,0,1,656.59,273.35Z" style="fill:#263238"></path><path d="M684.07,251.43a2.31,2.31,0,0,1-.24.46l-.75,1.25c-.66,1.09-1.64,2.64-2.79,4.6-2.32,3.9-5.43,9.36-8.39,15.62-1.46,3.14-2.74,6.18-3.78,9s-1.82,5.4-2.4,7.59-.93,4-1.16,5.24c-.1.59-.18,1.07-.25,1.44a1.52,1.52,0,0,1-.11.5,3.27,3.27,0,0,1,0-.51c0-.33.08-.82.17-1.45a52.3,52.3,0,0,1,1-5.29,79.58,79.58,0,0,1,2.32-7.66c1-2.83,2.3-5.88,3.77-9A158,158,0,0,1,680,257.59c1.19-1.95,2.21-3.48,2.91-4.54.33-.49.61-.89.82-1.21A3.56,3.56,0,0,1,684.07,251.43Z" style="fill:#263238"></path></g><g id="freepik--Chair--inject-14"><rect x="74.53" y="373.29" width="104.12" height="10.79" transform="translate(253.18 757.37) rotate(180)" style="fill:#455a64"></rect><polygon points="140.33 261.26 74.37 262.07 74.53 374.01 148.15 374.65 140.33 261.26" style="fill:#455a64"></polygon><polygon points="65.5 475.91 70.66 475.83 82.06 375.72 76.98 375.14 65.5 475.91" style="fill:#455a64"></polygon><polygon points="95.75 475.91 100.91 475.83 112.31 375.72 107.22 375.14 95.75 475.91" style="fill:#455a64"></polygon><polygon points="186.93 476.1 181.77 476.02 170.37 376.83 175.45 376.25 186.93 476.1" style="fill:#455a64"></polygon><polygon points="153.66 476.1 148.5 476.02 137.1 376.83 142.19 376.25 153.66 476.1" style="fill:#455a64"></polygon><path d="M82.06,373.57s-.15.24-.46.69l-1.41,2-5.58,7.87-.08-.16,104.12.1-.25.25v-11l.25.26-40,.12-56.59.15h-.25v-.25c0-32.55.07-60.42.1-80.17,0-9.86,0-17.69.07-23.07,0-2.67,0-4.73,0-6.14l0-1.58c0-.36,0-.54,0-.54s0,.18,0,.54l0,1.58,0,6.14c0,5.38,0,13.21.07,23.07,0,19.75.06,47.62.09,80.17l-.24-.24,56.59-.18,40-.11h.25v11.54h-.25l-104.12-.4h-.19l.11-.16,5.66-7.81,1.45-2C81.88,373.79,82.06,373.57,82.06,373.57Z" style="fill:#263238"></path></g><g id="freepik--speech-bubble--inject-14"><path d="M259.58,88.19A2.59,2.59,0,1,1,257,85.6,2.59,2.59,0,0,1,259.58,88.19Z" style="fill:#263238"></path><path d="M269.94,88.19a2.59,2.59,0,1,1-2.59-2.59A2.59,2.59,0,0,1,269.94,88.19Z" style="fill:#263238"></path><path d="M280.28,86.9a2.59,2.59,0,1,1-3.54-1A2.59,2.59,0,0,1,280.28,86.9Z" style="fill:#263238"></path><path d="M267.51,58a2,2,0,0,1,.53,0l1.53,0c.34,0,.72,0,1.14.05l1.36.19,1.58.23,1.77.44A28.71,28.71,0,0,1,284,62.63a30.27,30.27,0,0,1,13.9,22.75,31.77,31.77,0,0,1,.08,4.15c-.05.7,0,1.41-.13,2.12l-.33,2.13a30.35,30.35,0,0,1-2.88,8.44,32.59,32.59,0,0,1-5.51,7.59,32.14,32.14,0,0,1-7.94,5.71,29.08,29.08,0,0,1-9.69,3,20,20,0,0,1-2.58.22,22.66,22.66,0,0,1-2.61,0,31,31,0,0,1-5.23-.66,30.41,30.41,0,0,1-10.4-4.38l.31,0L240.39,118l-.63.25.18-.65,3.12-11.33.05.28a30.57,30.57,0,0,1-5.66-13A27.61,27.61,0,0,1,237,87a22.38,22.38,0,0,1,.3-3.19l.24-1.55c.1-.51.25-1,.37-1.5a30.34,30.34,0,0,1,11.83-17.24,29.06,29.06,0,0,1,7-3.72l1.59-.57,1.5-.38,1.38-.34c.44-.08.87-.13,1.27-.19.8-.1,1.5-.24,2.12-.27l1.56,0,.95,0a1,1,0,0,1,.32,0l-.32,0-.95.08-1.55.1c-.61,0-1.3.2-2.1.32a30.15,30.15,0,0,0-24.11,22.36c-.11.49-.26,1-.35,1.48s-.16,1-.23,1.52a20.23,20.23,0,0,0-.28,3.13,26.69,26.69,0,0,0,.43,6.51,29.74,29.74,0,0,0,5.58,12.67l.09.12,0,.16-3.09,11.34-.45-.4,10.6-4.27.16-.07.15.1a29.87,29.87,0,0,0,10.18,4.28,30.53,30.53,0,0,0,5.11.65,21.71,21.71,0,0,0,2.55,0,19.33,19.33,0,0,0,2.53-.21,28.31,28.31,0,0,0,9.46-2.9,31,31,0,0,0,7.78-5.56,32.07,32.07,0,0,0,5.42-7.42,29.8,29.8,0,0,0,2.85-8.26c.11-.7.22-1.4.32-2.09s.09-1.39.15-2.08a32.39,32.39,0,0,0-.07-4.07A30,30,0,0,0,283.79,63a28.88,28.88,0,0,0-8.44-3.8l-1.75-.47L272,58.42l-1.34-.22c-.41,0-.79-.05-1.13-.08L268,58Z" style="fill:#263238"></path></g><g id="freepik--Floor--inject-14"><path d="M699.76,475.87c0,.14-145.41.26-324.74.26S50.24,476,50.24,475.87s145.38-.26,324.78-.26S699.76,475.73,699.76,475.87Z" style="fill:#263238"></path></g><g id="freepik--character-3--inject-14"><path d="M558.46,182.55a20.63,20.63,0,0,1,21.74-17.61l1.07.07c11.45,1.41,16.64,11.92,14.92,23.33l-5,45.86h0l-27,8.56,1.45-20.54s-10.93-2.43-10.36-13.48C555.56,203.4,557,192.45,558.46,182.55Z" style="fill:#ffbe9d"></path><path d="M565.55,222.2a26.82,26.82,0,0,0,14.75-3.31s-3.91,7.73-14.87,6Z" style="fill:#eb996e"></path><path d="M561.07,190.29a1.58,1.58,0,0,0,1.42,1.69,1.5,1.5,0,0,0,1.72-1.31,1.58,1.58,0,0,0-1.42-1.69A1.51,1.51,0,0,0,561.07,190.29Z" style="fill:#263238"></path><path d="M560.49,187.63c.18.22,1.43-.59,3.13-.47s2.89,1,3.09.84-.08-.47-.6-.9a4.43,4.43,0,0,0-2.45-.93,4.15,4.15,0,0,0-2.51.64C560.6,187.17,560.4,187.54,560.49,187.63Z" style="fill:#263238"></path><path d="M576.51,191.81a1.58,1.58,0,0,0,1.42,1.69,1.51,1.51,0,0,0,1.72-1.32,1.58,1.58,0,0,0-1.42-1.69A1.52,1.52,0,0,0,576.51,191.81Z" style="fill:#263238"></path><path d="M577.16,188.77c.18.22,1.43-.59,3.13-.47s2.89,1,3.08.84-.07-.47-.59-.9a4.32,4.32,0,0,0-2.46-.93,4.19,4.19,0,0,0-2.5.63C577.27,188.31,577.07,188.67,577.16,188.77Z" style="fill:#263238"></path><path d="M570.19,201.69a12,12,0,0,0-2.73-.67c-.43-.07-.83-.19-.89-.49a2.22,2.22,0,0,1,.37-1.26l1.5-3.22c2.08-4.59,3.62-8.37,3.43-8.45s-2,3.57-4.1,8.15L566.32,199a2.57,2.57,0,0,0-.33,1.69,1.1,1.1,0,0,0,.67.68,3.39,3.39,0,0,0,.73.15A10.94,10.94,0,0,0,570.19,201.69Z" style="fill:#263238"></path><path d="M575.11,203.19c-.28,0-.4,1.81-2.06,3s-3.61.88-3.64,1.14c0,.11.41.39,1.24.46a4.57,4.57,0,0,0,3-.84,4,4,0,0,0,1.61-2.54C575.41,203.66,575.23,203.19,575.11,203.19Z" style="fill:#263238"></path><path d="M577.15,182.82c.13.47,1.84.36,3.82.73s3.55,1,3.84.62c.13-.19-.12-.65-.74-1.13a6.75,6.75,0,0,0-5.84-1C577.48,182.26,577.09,182.6,577.15,182.82Z" style="fill:#e0e0e0"></path><path d="M561.43,183.24c.27.4,1.47.08,2.88.15s2.58.42,2.88,0c.13-.19,0-.59-.53-1a4.1,4.1,0,0,0-2.3-.78,4,4,0,0,0-2.34.63C561.5,182.65,561.31,183,561.43,183.24Z" style="fill:#e0e0e0"></path><path d="M555,172.62A2.11,2.11,0,0,1,557.3,171a4.36,4.36,0,0,1-1.49-.83,1.53,1.53,0,0,1-.47-1.57c.32-.84,1.42-1,2.3-1.19a5.69,5.69,0,0,0,3-1.81c1.1-1.29,1.57-3,2.53-4.4a7.36,7.36,0,0,1,11.45-.81,7.65,7.65,0,0,1,12.23,2.35A8.92,8.92,0,0,1,598.65,173l-7,4a3.71,3.71,0,0,0-4.41-3.4c-2.1.52-3.52,2.87-5.69,2.95-1.68.07-3.06-1.29-4.67-1.79-2-.61-4.07.11-5.89,1s-3.57,2.12-5.57,2.54a11.4,11.4,0,0,1-7-1.1,7.39,7.39,0,0,1-2.54-1.71A3.24,3.24,0,0,1,555,172.62Z" style="fill:#e0e0e0"></path><path d="M590.53,173.64,559,172.24a14.42,14.42,0,0,1,5-5,24.58,24.58,0,0,1,14.6-4.19c5.14.25,15.18,7.2,18.66,11,2.79,3,2.61,5.48,2.61,5.48.2,4.11-2.39,8.6-3.57,12.55-.6,2-1.92,8.23-1.92,8.23h0c-1.74-.12-2.29-1.54-1.91-3.24l.77-6.71a10.18,10.18,0,0,1-2.32-12.07C591.39,177.66,592.53,174.92,590.53,173.64Z" style="fill:#e0e0e0"></path><path d="M593.73,189.88c1.82-5.52,3.52-11.45,2-17.07h.94l.38.3a4.42,4.42,0,0,1,4.7,7,3.81,3.81,0,0,1,3.7,3.48,7.06,7.06,0,0,1-1.16,3.65,8.63,8.63,0,0,0-1.34,3.6,2.77,2.77,0,0,0,2,2.93,3.16,3.16,0,0,1-3.64,1.6,6.33,6.33,0,0,0,2.06,2.81c-2.1,1.32-4.91.74-7.1-.44a6.08,6.08,0,0,1-3.06-3.06C592.69,193.13,593.22,191.44,593.73,189.88Z" style="fill:#e0e0e0"></path><path d="M594,196.41c.2-.07,7.74-1.75,7,5.78s-8.14,5.26-8.14,5S594,196.41,594,196.41Z" style="fill:#ffbe9d"></path><path d="M594.78,204.55s.12.1.33.23a1.33,1.33,0,0,0,1,.11c.83-.21,1.62-1.41,1.79-2.77a4.42,4.42,0,0,0-.19-1.91,1.54,1.54,0,0,0-.89-1.11.68.68,0,0,0-.81.29c-.12.2-.09.36-.13.36s-.15-.14-.06-.44a.87.87,0,0,1,.34-.45,1,1,0,0,1,.75-.12,1.86,1.86,0,0,1,1.26,1.3,4.47,4.47,0,0,1,.25,2.15c-.19,1.51-1.11,2.86-2.23,3.07a1.44,1.44,0,0,1-1.18-.32C594.77,204.73,594.75,204.56,594.78,204.55Z" style="fill:#eb996e"></path><path d="M602.08,190.45s.22-.28.17-.87a2.85,2.85,0,0,0-1.34-2,8.86,8.86,0,0,0-3.42-1,4.25,4.25,0,0,1-3.39-1.88,6.3,6.3,0,0,1-.43-4c.22-1.26.61-2.4.81-3.38a5.58,5.58,0,0,0,.07-3.25,14.16,14.16,0,0,1-.48,3.15c-.25,1-.66,2.06-.94,3.39a6.57,6.57,0,0,0,.46,4.37,3.71,3.71,0,0,0,1.74,1.59,7.55,7.55,0,0,0,2.07.54,9,9,0,0,1,3.3.79,2.72,2.72,0,0,1,1.32,1.7A5.59,5.59,0,0,1,602.08,190.45Z" style="fill:#fafafa"></path><path d="M604,187.23s.17-.21.26-.68a3.31,3.31,0,0,0-.3-2,3.51,3.51,0,0,0-.86-1.11,3.84,3.84,0,0,0-1.42-.73,4.3,4.3,0,0,1-1.42-.65,1.73,1.73,0,0,1-.51-1.4c0-.58.11-1.18.12-1.79a8.7,8.7,0,0,0-.13-1.72,8.16,8.16,0,0,0-1-2.74,2.08,2.08,0,0,0-1.63-1.13c-.5,0-.72.2-.7.22s.26-.07.67,0a1.9,1.9,0,0,1,1.3,1.11,8.52,8.52,0,0,1,.81,2.62,9.39,9.39,0,0,1,.08,1.61c0,.56-.13,1.15-.13,1.81a2.28,2.28,0,0,0,.73,1.84,4.53,4.53,0,0,0,1.62.73,3.12,3.12,0,0,1,2.08,1.52A4.28,4.28,0,0,1,604,187.23Z" style="fill:#fafafa"></path><path d="M560.59,165.61c-.05,0,.55.43,1.56,0a4.46,4.46,0,0,0,1.48-1.16,6.18,6.18,0,0,1,1.81-1.49,5.26,5.26,0,0,1,5.68.6c.91.71,1.7,1.69,2.76,2.52a4.72,4.72,0,0,0,1.85.95,4.06,4.06,0,0,0,2.16-.12c1.38-.44,2.49-1.23,3.68-1.61a9.5,9.5,0,0,1,3.57-.5,9.37,9.37,0,0,1,5.65,2.19,10.25,10.25,0,0,1,2.58,3.27c.43.89.58,1.43.63,1.42s0-.15-.06-.41a7.54,7.54,0,0,0-.36-1.11,9.9,9.9,0,0,0-2.52-3.49,9.61,9.61,0,0,0-5.89-2.41,10,10,0,0,0-3.79.49c-1.28.41-2.41,1.21-3.66,1.6a3.59,3.59,0,0,1-1.86.11,4.35,4.35,0,0,1-1.63-.83c-1-.77-1.8-1.75-2.77-2.5a5.51,5.51,0,0,0-3.26-1.22,5.93,5.93,0,0,0-3,.68,6.38,6.38,0,0,0-1.87,1.64,4.46,4.46,0,0,1-1.33,1.17A2.16,2.16,0,0,1,560.59,165.61Z" style="fill:#fafafa"></path><rect x="514.95" y="373.29" width="104.12" height="10.79" style="fill:#455a64"></rect><polygon points="553.27 261.26 619.23 262.07 619.07 374.01 545.45 374.65 553.27 261.26" style="fill:#455a64"></polygon><polygon points="628.48 475.87 623.05 475.91 611.54 375.72 616.62 375.14 628.48 475.87" style="fill:#455a64"></polygon><polygon points="597.85 475.91 592.69 475.83 581.29 375.72 586.38 375.14 597.85 475.91" style="fill:#455a64"></polygon><polygon points="506.67 476.1 511.83 476.02 523.23 376.83 518.15 376.25 506.67 476.1" style="fill:#455a64"></polygon><polygon points="539.94 476.1 545.1 476.02 556.49 376.83 551.41 376.25 539.94 476.1" style="fill:#455a64"></polygon><path d="M611.54,373.57s.18.22.5.66l1.45,2,5.66,7.81.11.16h-.2l-104.11.4h-.25V373H515l40,.11,56.59.18-.24.24c0-32.55.07-60.42.09-80.17,0-9.86.05-17.69.07-23.07,0-2.67,0-4.73,0-6.14l0-1.58c0-.36,0-.54,0-.54s0,.18,0,.54,0,.89,0,1.58c0,1.41,0,3.47,0,6.14,0,5.38,0,13.21.07,23.07,0,19.75.06,47.62.1,80.17v.25h-.25L555,373.67l-40-.12.25-.26v11l-.25-.25,104.11-.1-.08.16-5.57-7.87-1.41-2C611.69,373.81,611.54,373.57,611.54,373.57Z" style="fill:#263238"></path><path d="M456.22,437.84l.39,24.21s-24.47,8.53-24.84,13l47,.93.94-37.75Z" style="fill:#E28E04"></path><g style="opacity:0.30000000000000004"><path d="M456.22,437.84l.39,24.21s-24.47,8.53-24.84,13l47,.93.94-37.75Z"></path></g><path d="M471.17,460.3a1.92,1.92,0,0,1,1.29,2.22,1.85,1.85,0,0,1-2.19,1.29,2,2,0,0,1-1.34-2.36,1.92,1.92,0,0,1,2.42-1.09" style="fill:#e0e0e0"></path><path d="M478.74,476l.15-3.82-45.21.54s-2.11.87-1.91,2.35Z" style="fill:#263238"></path><path d="M455.86,461.8c0,.23,1.14.35,2.26,1.11s1.69,1.74,1.91,1.65-.11-1.42-1.47-2.31S455.81,461.58,455.86,461.8Z" style="fill:#263238"></path><path d="M450.89,463.74c-.06.22.93.63,1.69,1.61s1,2,1.19,2,.4-1.3-.57-2.5S450.9,463.52,450.89,463.74Z" style="fill:#263238"></path><path d="M448,469.58c.21.05.55-1.09,0-2.36s-1.63-1.79-1.73-1.6.55.88,1,1.92S447.75,469.55,448,469.58Z" style="fill:#263238"></path><path d="M456.38,456.27c.09.21,1.15-.09,2.44,0s2.3.54,2.42.35-.83-1-2.36-1.15S456.27,456.09,456.38,456.27Z" style="fill:#263238"></path><path d="M526.39,326.06s-13.91,2.09-28.23,4.75C481,334,462.69,338,460.24,339.92c-4.49,3.53-5.46,13.16-7.38,25.05s-2.7,85.17-2.7,85.17l31.72,1,6.83-77.71s46.58,0,56.16-.08c7.73-.05,28.72,1.15,36.42-3.35s14.06-25,14-25l-60.1-24.83Z" style="fill:#263238"></path><path d="M458.32,374.69l-4.6,24.43s-26.37,3.53-27.66,8l47.05,10.62,8.72-37.77Z" style="fill:#E28E04"></path><path d="M468.73,400.36a2,2,0,0,1,.83,2.49,1.88,1.88,0,0,1-2.46.85,2.08,2.08,0,0,1-.87-2.64,2,2,0,0,1,2.66-.6" style="fill:#e0e0e0"></path><path d="M472.92,418.69l.84-3.66-45.31-9.91s-2.3.44-2.39,2Z" style="fill:#e0e0e0"></path><path d="M453,398.71c0,.23,1.08.59,2.05,1.59s1.35,2.09,1.58,2.05.19-1.45-1-2.63S453,398.49,453,398.71Z" style="fill:#263238"></path><path d="M447.62,399.64c-.1.21.8.82,1.36,2s.56,2.23.79,2.27.67-1.23-.06-2.64S447.67,399.42,447.62,399.64Z" style="fill:#263238"></path><path d="M443.48,404.91c.2.1.78-1,.47-2.37s-1.26-2.14-1.4-2,.37,1,.6,2.14S443.26,404.84,443.48,404.91Z" style="fill:#263238"></path><path d="M454.68,393.26c.05.23,1.17.15,2.45.53s2.2,1,2.36.85-.62-1.21-2.13-1.64S454.61,393.05,454.68,393.26Z" style="fill:#263238"></path><path d="M479.64,299.78a14.65,14.65,0,0,0-14.13,6.42c-5.46,8-13.36,79.31-13.36,79.31l28.38,6.43,17.53-61.32,28.46-4.56,9.32-6.29s-6.79-3-16.41-7.47S479.64,299.78,479.64,299.78Z" style="fill:#263238"></path><path d="M582.9,368.84s-.36.24-1.07.06a1.52,1.52,0,0,1-1.1-.73,4.14,4.14,0,0,1-.33-1.75c-.16-2.68-.37-6.37-.62-10.75l.32.2a58.27,58.27,0,0,1-12.57,3.49,59.17,59.17,0,0,1-10.86.71,8.64,8.64,0,0,0-2.36.15,2.85,2.85,0,0,0-1.72,1.19,6.32,6.32,0,0,0-.78,3.84c.18,2.54,0,4.58,0,6,0,.7,0,1.25,0,1.62a3.55,3.55,0,0,1,0,.57,1.63,1.63,0,0,1-.11-.56c0-.37-.07-.92-.09-1.63-.06-1.41,0-3.46-.18-6a6.67,6.67,0,0,1,.79-4.11,3.37,3.37,0,0,1,2-1.4,9,9,0,0,1,2.49-.18,61.15,61.15,0,0,0,10.77-.75,60.26,60.26,0,0,0,12.48-3.39l.3-.12v.32c.18,4.38.32,8.08.43,10.76a4.57,4.57,0,0,0,.24,1.67,1.48,1.48,0,0,0,1,.69A2.25,2.25,0,0,0,582.9,368.84Z" style="fill:#455a64"></path><path d="M497.93,330.56a24.49,24.49,0,0,0-3.87-4.71,25,25,0,0,0-5.21-3.18,10.85,10.85,0,0,1,5.55,2.78,13.26,13.26,0,0,1,2.82,3.42A4.54,4.54,0,0,1,497.93,330.56Z" style="fill:#455a64"></path><path d="M490.84,315.12s.24.11.61.39a13.53,13.53,0,0,1,1.46,1.33A18.8,18.8,0,0,1,498,328.59a13.69,13.69,0,0,1,0,2,2.27,2.27,0,0,1-.12.71c-.09,0,0-1-.23-2.65a21.28,21.28,0,0,0-1.64-6.15,21.76,21.76,0,0,0-3.39-5.39C491.57,315.85,490.79,315.18,490.84,315.12Z" style="fill:#455a64"></path><path d="M457.72,341.5s0,.07,0,.21l-.07.61q-.09.84-.27,2.37c-.25,2.1-.63,5.13-1.1,9l-4,31.88-.18-.25,28.39,6.4-.3.17c1.31-4.24,2.68-8.69,4.07-13.21,5.52-17.81,10.47-34.37,13.49-48.07l0-.15.15,0L514.41,328l12-2.07,0,0,5.29-3.5,1.36-.89.47-.29a4.52,4.52,0,0,1-.44.34l-1.33.93-5.23,3.59,0,0h0l-11.95,2.18L498,330.83l.18-.16c-3,13.74-7.9,30.33-13.41,48.13L480.65,392l-.07.23-.23-.05L452,385.73l-.2,0,0-.21c1.74-13.12,3.19-24.11,4.22-31.85.52-3.84.94-6.86,1.22-9,.15-1,.26-1.8.34-2.36l.1-.61A1.81,1.81,0,0,1,457.72,341.5Z" style="fill:#455a64"></path><path d="M512.72,298.28l-23.3,5.64L500.56,307c.73.19,14.34,3.15,16.57,2.14a28.4,28.4,0,0,0,3.76-2l2-8.36-2.23-.54A16.87,16.87,0,0,0,512.72,298.28Z" style="fill:#ffbe9d"></path><path d="M615,239.48l-18.95-16.55-2.65-5.49L567.9,234.56l-1.77,6.25-1.71-8.48-3,7.58-3.83,2.92a18.6,18.6,0,0,0-3.21,3.91,66.59,66.59,0,0,0-4.67,9.18c-1.08,2.62-4.64,13.75-9.06,24.92-7,17.64-12.61,36.24-8.71,39.25s50,27.89,61.89,29.19c6.5.71,8.33-4.32,9.45-10.19C605.38,328.21,615,239.48,615,239.48Z" style="fill:#E28E04"></path><polygon points="458.07 292.85 457.18 295.82 536.52 318.24 537.62 314.53 458.07 292.85" style="fill:#455a64"></polygon><path d="M548.16,296.31a2.27,2.27,0,0,1,.11-.58c.12-.42.26-1,.44-1.61.39-1.4,1-3.42,1.73-5.91s1.7-5.44,2.83-8.69,2.58-6.74,3.85-10.49c2.59-7.49,4.75-14.34,6.35-19.28.79-2.42,1.43-4.4,1.9-5.85l.54-1.59a1.85,1.85,0,0,1,.22-.54,4,4,0,0,1-.12.57c-.12.43-.27,1-.45,1.62l-1.74,5.9c-1.51,5-3.62,11.84-6.21,19.34-1.28,3.77-2.78,7.24-3.89,10.48s-2.12,6.17-2.92,8.64-1.43,4.41-1.9,5.86c-.21.64-.39,1.17-.52,1.58A2.54,2.54,0,0,1,548.16,296.31Z" style="fill:#263238"></path><g style="opacity:0.30000000000000004"><path d="M606.18,312.72c-4.61,6.48-12.86,9.55-20.8,9.85s-15.76-1.78-23.46-3.75-15.6-3.85-23.51-3.15l-1.17-.17c10.64,4.59,21.12,9.5,32.22,12.83A54.54,54.54,0,0,0,585,331.11c5.28,0,10.7-1.34,14.88-4.59S606.81,318,606.18,312.72Z"></path></g><path d="M595.2,243.87c4.15-8.55,16-10,21.71-2.37a18.62,18.62,0,0,1,2.32,8.14c-.15,6.42-4.21,51.36-13.75,65.65-5.39,8.08-15,8.58-17.55,8.61-6,.08-31.24-5-41.19-6.55S518,311,518,311l3.26-13.67,57.39-2.38,10.68-39Z" style="fill:#E28E04"></path><path d="M588.26,306.32a14.46,14.46,0,0,1-.74-2.19,16.87,16.87,0,0,0-2.43-4.89,13.52,13.52,0,0,0-4.16-3.5,15.5,15.5,0,0,1-2-1.11,7.54,7.54,0,0,1,2.2.78,12.26,12.26,0,0,1,4.41,3.51,14.69,14.69,0,0,1,2.36,5.11A7.85,7.85,0,0,1,588.26,306.32Z" style="fill:#263238"></path><path d="M611.54,299.59a.67.67,0,0,1,0,.23l-.15.65c-.13.58-.35,1.42-.66,2.5a57.75,57.75,0,0,1-3.36,8.88,26.61,26.61,0,0,1-3.49,5.58,16.63,16.63,0,0,1-6.15,4.37c-4.89,2.21-10.93,2.77-17,2.1-3-.31-6-.84-8.82-1.39l-8.15-1.6-13.79-2.75-9.29-1.9-2.52-.54-.65-.15-.22-.07a.58.58,0,0,1,.23,0l.66.11,2.54.44L550,317.8l13.81,2.64L572,322c2.83.54,5.76,1.06,8.79,1.37,6,.66,12,.12,16.77-2a16.46,16.46,0,0,0,6-4.21,27,27,0,0,0,3.48-5.47,61.2,61.2,0,0,0,3.49-8.77c.34-1.07.6-1.9.76-2.46.08-.26.14-.47.2-.65A.61.61,0,0,1,611.54,299.59Z" style="fill:#263238"></path><path d="M589.37,255.92a4.42,4.42,0,0,1-.16.77c-.14.54-.32,1.27-.55,2.2-.51,2-1.23,4.73-2.13,8.17-1.86,7-4.44,16.64-7.38,27.64l0,.18h-.18l-8.77.47c-13.49.65-25.71,1.05-34.54,1.41l-10.47.43-2.85.11-.74,0h-.25a.61.61,0,0,1,.25,0l.74-.07,2.84-.21c2.47-.16,6-.37,10.46-.6l34.53-1.56,8.77-.46-.23.19c3-11,5.64-20.64,7.55-27.6,1-3.42,1.73-6.18,2.27-8.13l.64-2.18A4.18,4.18,0,0,1,589.37,255.92Z" style="fill:#263238"></path><path d="M613.27,240.21a25.74,25.74,0,0,0-3.72-1.29,14.57,14.57,0,0,0-16.11,7,26.51,26.51,0,0,0-1.6,3.6,3.33,3.33,0,0,1,.19-1.06,13.18,13.18,0,0,1,1.08-2.72,14.36,14.36,0,0,1,16.53-7.17,12.12,12.12,0,0,1,2.73,1.06A3,3,0,0,1,613.27,240.21Z" style="fill:#263238"></path><g style="opacity:0.30000000000000004"><path d="M567.9,234.56a22,22,0,0,0,1.55,7.71c.15.4.76,3.12,1.18,3.2a1.63,1.63,0,0,0,1.22-.5,170,170,0,0,0,18.06-16.82l-18.25,13.36-3.76-6.95Z"></path></g><path d="M561.43,239.91a1.41,1.41,0,0,1,.13.4c.09.32.19.7.31,1.18h-.16c.45-1.66,1.28-4.58,2.39-8.38l.19-.69.18.7c.55,2.25,1.19,4.83,1.89,7.64h-.46c.55-2,1.14-4.06,1.76-6.25l.17-.61.3.55,3.25,6,.51.94-.38-.08,17.35-12.87,5.27-3.83,1.44-1a3.11,3.11,0,0,1,.52-.33s-.14.15-.46.41-.81.65-1.38,1.09l-5.17,4-17.26,13-.24.18-.14-.27-.51-.94-3.25-6,.47-.06c-.63,2.2-1.24,4.3-1.8,6.25l-.25.87-.2-.88c-.67-2.82-1.27-5.4-1.81-7.66h.37c-1.16,3.78-2.06,6.68-2.59,8.32l-.1.31-.06-.31c-.09-.49-.17-.88-.23-1.2A2.47,2.47,0,0,1,561.43,239.91Z" style="fill:#263238"></path></g><g id="freepik--character-2--inject-14"><path d="M377.83,209.08c-.88-6.77-3.14-13.49-7.41-18.78s-10.73-9-17.52-9l8.19,86.94a18.79,18.79,0,0,0,5.86,1.44,6.32,6.32,0,0,0,5.35-2.35,9.26,9.26,0,0,0,1.3-4q2.72-16.8,4.13-33.75C378.3,222.73,378.71,215.85,377.83,209.08Z" style="fill:#263238"></path><path d="M334.51,184.61c-2.56,2.4-3.2,7.44-4.62,10.66A101.07,101.07,0,0,0,324,211.09c-1.49,6-1.86,12.24-2.21,18.42q-.58,10.26-1.18,20.51a28.54,28.54,0,0,0,.45,9.09c.79,2.93,2.74,5.73,5.59,6.72a8.81,8.81,0,0,0,7.87-1.47,17,17,0,0,0,5.08-6.53l8.21-75.48C343.49,181,337.81,181.53,334.51,184.61Z" style="fill:#263238"></path><rect x="291.04" y="372.91" width="104.12" height="10.79" style="fill:#455a64"></rect><polygon points="315.46 260.88 381.43 261.69 381.26 373.63 307.65 374.27 315.46 260.88" style="fill:#455a64"></polygon><polygon points="404.19 475.75 399.03 475.68 387.63 375.34 392.71 374.76 404.19 475.75" style="fill:#455a64"></polygon><polygon points="374.07 475.71 368.92 475.71 357.38 375.34 362.46 374.76 374.07 475.71" style="fill:#455a64"></polygon><polygon points="282.76 475.71 287.92 475.64 299.32 376.45 294.24 375.86 282.76 475.71" style="fill:#455a64"></polygon><polygon points="316.03 475.71 321.19 475.64 332.58 376.45 327.5 375.86 316.03 475.71" style="fill:#455a64"></polygon><path d="M395.16,372.91s0,.24,0,.7,0,1.17,0,2.06c0,1.84,0,4.54.05,8v.11h-.11l-104.12.4h-.26V372.65H291l74,.09,22.07.08,6,0,1.55,0,.53,0-.53,0-1.55,0-6,.05-22.07.08-74,.08.26-.26v11l-.26-.26,104.12-.1-.11.11c0-3.49,0-6.19.05-8,0-.89,0-1.58,0-2.06S395.16,372.91,395.16,372.91Z" style="fill:#263238"></path><path d="M302.72,258s-2.12,1.75-3.85,8.86a164.5,164.5,0,0,0-3.85,25,47.6,47.6,0,0,0,2.06,17.79l16.17,8.89.79-41.11Z" style="fill:#ffbe9d"></path><path d="M300.36,258.81,312.91,277l-.73,30.8s-.31,21.55,6.29,23.54,43.81,2.08,53,3.07,14.43,1.87,14.43,1.34-6-26.28-7.88-32h0s1.67-12.42,2.71-19.15l.55-4.13,16.27-17.92s-7.83-8-15.13-11.65A38,38,0,0,0,368,247.09l-31.54-2.73L314,249.48A42.45,42.45,0,0,0,307,253.2Z" style="fill:#E28E04"></path><path d="M312.5,264a7.5,7.5,0,0,1,.14,1.52c.05,1,.09,2.42.11,4.18.06,3.52.06,8.39,0,13.76s-.09,10.15-.13,13.76c0,1.69,0,3.09,0,4.17a10.33,10.33,0,0,1-.06,1.53,7.55,7.55,0,0,1-.14-1.53c0-1-.09-2.41-.11-4.17-.06-3.52-.06-8.39,0-13.76s.09-10.15.13-13.76c0-1.69,0-3.09.05-4.17A10.2,10.2,0,0,1,312.5,264Z" style="fill:#263238"></path><path d="M348.88,263.92a3.94,3.94,0,0,1-1.16.23,12.84,12.84,0,0,1-3.22-.08,13.92,13.92,0,0,1-12-15.26,12.28,12.28,0,0,1,.69-3.14,4.35,4.35,0,0,1,.49-1.08,22.78,22.78,0,0,0-.81,4.25,14,14,0,0,0,11.68,14.87A21.3,21.3,0,0,0,348.88,263.92Z" style="fill:#263238"></path><g style="opacity:0.30000000000000004"><path d="M369.29,247.18l-11.83-.47-16.93,34.47a4.91,4.91,0,0,0,4.55,4.59,5.39,5.39,0,0,0,1.85,6.55,6.61,6.61,0,0,0,7,.05,8.62,8.62,0,0,0,3.86-6.06,4.87,4.87,0,0,0,4-.13,10.51,10.51,0,0,0,3.22-2.57c4.76-5.29,4.6-12.79,4.9-19.9S370.39,253.24,369.29,247.18Z"></path></g><path d="M383.78,262.74c.14,0-1.1,9.73-2.77,21.68S377.87,306,377.73,306s1.09-9.72,2.77-21.67S383.64,262.72,383.78,262.74Z" style="fill:#263238"></path><g style="opacity:0.30000000000000004"><path d="M339.74,304.55A8.78,8.78,0,0,0,345.8,306,23.77,23.77,0,0,0,352,304.4a28.87,28.87,0,0,0,6.09-2.84,11.12,11.12,0,0,0,4.35-5A73.11,73.11,0,0,1,339.74,304.55Z"></path></g><path d="M365.15,295.07a5.82,5.82,0,0,1-1,.75c-.66.46-1.64,1.07-2.88,1.79a56.27,56.27,0,0,1-21.13,6.95c-1.43.17-2.58.25-3.38.27a5.32,5.32,0,0,1-1.25,0,5.64,5.64,0,0,1,1.23-.19c.8-.08,1.94-.22,3.35-.43a64.26,64.26,0,0,0,21-6.92c1.26-.66,2.27-1.23,2.95-1.64A5.38,5.38,0,0,1,365.15,295.07Z" style="fill:#263238"></path><path d="M378.71,292.67a3,3,0,0,1-.66.13l-1.92.25c-1.66.22-4.08.48-7.07.76-6,.55-14.28,1.08-23.45,1.17s-17.48-.28-23.47-.72c-3-.22-5.42-.44-7.09-.62l-1.92-.22a4.51,4.51,0,0,1-.66-.11,2.85,2.85,0,0,1,.67,0l1.93.13c1.68.12,4.1.28,7.1.45,6,.35,14.28.65,23.44.57s17.43-.56,23.42-1c3-.23,5.41-.43,7.08-.59l1.93-.16A3.08,3.08,0,0,1,378.71,292.67Z" style="fill:#fff"></path><path d="M380,289a3.32,3.32,0,0,1-.67.1l-1.93.17c-1.67.14-4.09.3-7.09.48-6,.35-14.27.7-23.43.81s-17.45,0-23.45-.24c-3-.11-5.42-.22-7.1-.31l-1.93-.13a2.75,2.75,0,0,1-.67-.08,5,5,0,0,1,.68,0l1.93,0,7.1.15c6,.11,14.28.2,23.43.09s17.43-.4,23.42-.66l7.1-.32,1.93-.07A3.3,3.3,0,0,1,380,289Z" style="fill:#fff"></path><path d="M321.94,242.6c.16,0,.11-.86-.08-2.31s-.53-3.53-.86-6.1a54.43,54.43,0,0,1-.49-9,29,29,0,0,1,2.3-10.49,99.34,99.34,0,0,1,5.18-9.79,51.74,51.74,0,0,0,4-8.41,21.69,21.69,0,0,0,1.32-6.19c.06-1.5-.11-2.32-.26-2.33-.37,0-.48,3.25-2.6,7.91a67.59,67.59,0,0,1-4.34,7.92,76.06,76.06,0,0,0-5.48,10c-.41.94-.75,1.91-1.06,2.87-.14.49-.29,1-.39,1.46s-.25,1-.32,1.44a28.91,28.91,0,0,0-.53,5.59,43.82,43.82,0,0,0,1,9.29,55.85,55.85,0,0,0,1.6,6C321.44,241.89,321.78,242.64,321.94,242.6Z" style="fill:#263238"></path><path d="M352.48,184.18a19.54,19.54,0,0,0-21.36,15.9c-1.64,8.73-3.82,17-3.89,20.26-.2,9.71,3.08,12.13,6.89,15.25a22.9,22.9,0,0,0,3.75,2.58l-2.16,9.42c-1.23,7.27,3.47,11.54,10.81,12.84s12.53-1.76,13.91-9L369,205.9A18.91,18.91,0,0,0,352.48,184.18Z" style="fill:#ffbe9d"></path><path d="M333.14,205.57a1.54,1.54,0,0,0,1.2,1.79,1.5,1.5,0,0,0,1.84-1.09,1.55,1.55,0,0,0-1.2-1.79A1.5,1.5,0,0,0,333.14,205.57Z" style="fill:#263238"></path><path d="M333.3,202.78c.15.23,1.47-.41,3.12-.12s2.72,1.33,2.94,1.16,0-.46-.49-.93a4.29,4.29,0,0,0-4.83-.84C333.46,202.35,333.22,202.68,333.3,202.78Z" style="fill:#263238"></path><path d="M348.78,209.22A1.53,1.53,0,0,0,350,211a1.5,1.5,0,0,0,1.84-1.09,1.55,1.55,0,0,0-1.2-1.79A1.5,1.5,0,0,0,348.78,209.22Z" style="fill:#263238"></path><path d="M349.5,206c.15.23,1.47-.42,3.13-.12s2.71,1.33,2.93,1.16,0-.47-.49-.94a4.3,4.3,0,0,0-2.3-1.17,4.09,4.09,0,0,0-2.53.34C349.66,205.53,349.42,205.85,349.5,206Z" style="fill:#263238"></path><path d="M341.28,217a11,11,0,0,0-2.6-1c-.41-.12-.79-.27-.81-.57a2.12,2.12,0,0,1,.5-1.19c.59-.94,1.19-1.92,1.83-3,2.56-4.22,4.5-7.72,4.33-7.82s-2.39,3.24-4.95,7.46l-1.78,3a2.44,2.44,0,0,0-.52,1.6,1.06,1.06,0,0,0,.58.73,3,3,0,0,0,.7.23A11.31,11.31,0,0,0,341.28,217Z" style="fill:#263238"></path><path d="M337.87,238.17s6.29,1.65,15.14-1.69c0,0-4,7.9-15.83,4.67Z" style="fill:#eb996e"></path><path d="M341.26,221.09a3.06,3.06,0,0,1,2.88-.63,2.79,2.79,0,0,1,1.69,1.33,1.72,1.72,0,0,1-.22,2,2.06,2.06,0,0,1-2.27.16,6.35,6.35,0,0,1-1.89-1.62,1.91,1.91,0,0,1-.38-.56.55.55,0,0,1,.11-.61" style="fill:#eb996e"></path><path d="M345.94,219c-.26-.06-.59,1.71-2.36,2.7s-3.64.46-3.7.7.37.42,1.17.59a4.6,4.6,0,0,0,3.07-.49,3.92,3.92,0,0,0,1.87-2.28C346.19,219.5,346.07,219,345.94,219Z" style="fill:#263238"></path><path d="M349.28,203c.08.48,1.77.56,3.67,1.13s3.37,1.38,3.7,1c.15-.17,0-.63-.6-1.18a6.7,6.7,0,0,0-5.62-1.63C349.67,202.45,349.24,202.74,349.28,203Z" style="fill:#263238"></path><path d="M334.51,199.55c.23.42,1.44.24,2.81.46s2.48.7,2.82.36c.15-.17,0-.58-.4-1a4,4,0,0,0-2.17-1,4,4,0,0,0-2.37.36C334.65,199,334.42,199.35,334.51,199.55Z" style="fill:#263238"></path><path d="M351.08,256.18A39.9,39.9,0,0,1,342,271a23.36,23.36,0,0,0-4,4.66c-1,1.8-1.29,4.14-.14,5.83s4.05,2.08,5.21.4a10.59,10.59,0,0,0-.73,3.75,3.63,3.63,0,0,0,1.85,3.15c1.53.71,3.31-.14,4.68-1.12a23.47,23.47,0,0,0,6.72-7.47c-1.1,1.25.28,3.42,1.94,3.54s3.13-1.1,4.15-2.42c2.54-3.31,3.43-7.55,4.12-11.66a203.85,203.85,0,0,0,2.83-33.27" style="fill:#263238"></path><path d="M358.39,197.86c2.18,8.21.71,16.95-1.42,25.19s-4.91,16.41-5.37,24.9c-.18,3.35,0,6.8-1.23,9.92-.71,1.83-1.87,3.46-2.68,5.25a7,7,0,0,0-.38,5.7,5.49,5.49,0,0,0,4.82,2.9,9.52,9.52,0,0,0,5.52-1.84,20.93,20.93,0,0,0,7.53-10.31,62.55,62.55,0,0,0,2.75-12.66q2.44-16.72,4.88-33.43c.71-4.82,1.41-9.75.46-14.52a24.74,24.74,0,0,0-7.44-13c-4.41-4.16-10.68-6.92-16.52-5.31-1.95.53-4,1.93-4,4,0,1.6,1.27,2.88,2.45,4l11.7,10.61" style="fill:#263238"></path><path d="M352.1,258.59c.16,0,.07-.95-.17-2.57s-.63-3.94-.92-6.81a43.77,43.77,0,0,1,.07-10,47,47,0,0,1,3.53-11.74,117.84,117.84,0,0,0,4.59-11.84,31,31,0,0,0,1.34-10.47,17.25,17.25,0,0,0-1.79-6.9c-.21-.37-.4-.69-.57-1a6.05,6.05,0,0,0-.49-.65c-.29-.34-.47-.49-.53-.45s0,.28.12.69l.28.73c.1.3.21.64.35,1a21,21,0,0,1,1,6.59,33,33,0,0,1-1.75,9.79c-1.16,3.59-3,7.42-4.69,11.58a44.26,44.26,0,0,0-3.51,12.37,39,39,0,0,0,.43,10.5,50.56,50.56,0,0,0,1.67,6.8C351.56,257.8,352,258.63,352.1,258.59Z" style="fill:#263238"></path><path d="M377.65,206.68a2.55,2.55,0,0,0-.32-.21l-.95-.56c-.42-.23-.92-.52-1.49-.88s-1.25-.74-2-1.21c-1.44-.91-3.13-2-4.95-3.36s-3.78-2.85-5.77-4.53-3.79-3.38-5.39-5-3-3.08-4.12-4.36c-.57-.63-1.07-1.22-1.51-1.74s-.81-1-1.12-1.33l-.7-.85c-.16-.19-.25-.29-.26-.28s.07.11.23.31l.66.88c.29.38.65.84,1.09,1.36s.92,1.12,1.49,1.76c1.11,1.3,2.5,2.79,4.08,4.4s3.42,3.3,5.4,5,4,3.2,5.79,4.53,3.54,2.43,5,3.32c.72.46,1.39.84,2,1.18s1.09.63,1.51.85l1,.52A1.85,1.85,0,0,0,377.65,206.68Z" style="fill:#455a64"></path><path d="M377.38,208.34l-.36-.15-1-.4-.75-.28-.89-.38c-.63-.27-1.37-.55-2.15-.94l-1.23-.58c-.43-.21-.86-.45-1.31-.68-.91-.46-1.85-1-2.84-1.6a60.62,60.62,0,0,1-6.12-4.27,59.88,59.88,0,0,1-5.5-5.06c-.78-.84-1.54-1.63-2.18-2.43-.33-.39-.66-.76-.95-1.13s-.58-.73-.84-1.08c-.55-.68-1-1.33-1.39-1.89l-.56-.79-.45-.68c-.26-.39-.46-.7-.62-.93a1.36,1.36,0,0,0-.23-.32s.06.12.19.34l.59,1,.43.69c.16.25.34.52.54.8.4.57.82,1.24,1.37,1.92l.82,1.09c.29.38.62.75,1,1.15.64.8,1.39,1.6,2.17,2.45a58.8,58.8,0,0,0,5.51,5.09,60.62,60.62,0,0,0,6.16,4.28c1,.57,1.94,1.13,2.86,1.58.46.23.89.47,1.32.67l1.24.57c.79.38,1.53.65,2.17.92l.89.35.77.27,1.06.35A2,2,0,0,0,377.38,208.34Z" style="fill:#fff"></path><path d="M358.19,264.79s0,0,.07-.14l.17-.43c.14-.38.36-.93.6-1.67a57.21,57.21,0,0,0,1.73-6.28c.6-2.68,1.14-5.92,1.59-9.53s.84-7.59,1.27-11.76c.85-8.34,1.61-15.89,2.17-21.37.26-2.73.48-4.94.63-6.48.07-.76.12-1.35.16-1.77l0-.46c0-.1,0-.15,0-.15s0,.05,0,.15,0,.27-.06.46l-.2,1.76c-.17,1.54-.41,3.75-.7,6.47-.58,5.48-1.37,13-2.24,21.37-.43,4.17-.81,8.15-1.25,11.76s-1,6.83-1.54,9.52a64.5,64.5,0,0,1-1.66,6.29c-.22.73-.43,1.29-.56,1.67l-.14.44Z" style="fill:#455a64"></path><path d="M357.86,239a1.93,1.93,0,0,0,.12-.36c.07-.26.18-.61.3-1.05.26-.91.62-2.24,1-3.88.85-3.28,1.94-7.83,3-12.9s1.84-9.69,2.36-13c.25-1.67.45-3,.57-4,.06-.45.11-.81.14-1.08a1.81,1.81,0,0,0,0-.38,3.16,3.16,0,0,0-.08.37q-.06.41-.18,1.08c-.15,1-.38,2.3-.65,4-.55,3.34-1.38,8-2.42,13s-2.1,9.62-2.91,12.91c-.4,1.63-.73,3-1,3.9-.1.44-.19.79-.26,1.06A2.5,2.5,0,0,0,357.86,239Z" style="fill:#455a64"></path><path d="M333.31,244.77c0-.14.05-.26.11-.26s.11.12.11.26,0,.26-.11.26S333.31,244.91,333.31,244.77Z" style="fill:#263238"></path><path d="M356.44,443.22l-2.82,20.09s19.47,9.61,19.31,13.37l-39.14-4.07,3.11-31.47Z" style="fill:#E28E04"></path><path d="M341.7,460.35a1.62,1.62,0,0,0-1.3,1.71,1.54,1.54,0,0,0,1.69,1.3,1.7,1.7,0,0,0,1.36-1.82,1.61,1.61,0,0,0-1.9-1.15" style="fill:#e0e0e0"></path><path d="M333.68,473.43l.3-3.05,37.62,4.15s1.66.94,1.33,2.15Z" style="fill:#e0e0e0"></path><path d="M354.28,463.17c0,.19-1,.18-2,.7s-1.58,1.27-1.75,1.17.23-1.17,1.46-1.77S354.34,463,354.28,463.17Z" style="fill:#263238"></path><path d="M358.21,465.3c0,.19-.84.43-1.57,1.17s-1,1.57-1.2,1.55-.2-1.13.73-2S358.22,465.12,358.21,465.3Z" style="fill:#263238"></path><path d="M360,470.45c-.18,0-.35-1,.25-1.95s1.54-1.32,1.61-1.15-.55.67-1,1.49S360.22,470.45,360,470.45Z" style="fill:#263238"></path><path d="M354.41,458.52c-.09.17-.94-.18-2-.22s-2,.21-2.05,0,.8-.77,2.08-.71S354.52,458.38,354.41,458.52Z" style="fill:#263238"></path><path d="M332.87,371.13l-1.69,79.47,26.25,3.33s8.48-34.28,10.87-53.16,1-28.06,1-28.06h17.24s7.25-10.26,7.26-20.47c0-14.27-12.58-30.46-12.58-30.46l-34.85,14.46S330.37,350.24,332.87,371.13Z" style="fill:#263238"></path><path d="M358.43,352c.35.12,18.51,9.57,18.51,9.57l9.6-12.69-17.47-13Z" style="fill:#ffbe9d"></path><path d="M301.08,300.55s-9.17-.78-14.19,7.12-4.45,14.1-.69,27.3c3.92,13.76,4.62,34.41,19.72,37.74s28.83-2.24,28.83-2.24-2-9.72,1.67-15.75,6.7-7,6.7-7l19.07,7.36,11.54-15.77s-17.61-19.26-37.31-29.4C317,299.9,301.4,300.61,301.08,300.55Z" style="fill:#263238"></path><path d="M365.46,331.06l.15.13.44.4,1.65,1.58c1.45,1.42,3.53,3.46,6.15,6l.09.1-.08.11L362.38,355.2l-.11.14-.16-.06-11-4.22c-1.94-.72-3.89-1.57-5.93-2.2s-4.21-1-6.4-1.46a172.22,172.22,0,0,1-20.94-6,88.16,88.16,0,0,1-8.83-3.56,51.54,51.54,0,0,1-7.17-4.18,39.33,39.33,0,0,1-8.72-8.22,26.15,26.15,0,0,1-2.41-3.67s.07.07.18.23l.47.7c.2.31.46.7.79,1.13s.68,1,1.13,1.49a40.71,40.71,0,0,0,8.77,8,51.78,51.78,0,0,0,7.15,4.09A85.84,85.84,0,0,0,318,341a178.22,178.22,0,0,0,20.89,5.94c2.17.47,4.36.81,6.44,1.47s4,1.5,6,2.22l11,4.26-.27.08,11.61-15.72v.21l-6-6.12-1.6-1.64-.4-.43C365.49,331.12,365.45,331.07,365.46,331.06Z" style="fill:#455a64"></path><path d="M332.38,399.59a2.23,2.23,0,0,1,0-.55v-7.31c0-4.93,0-11.6.07-19,0-3.7.07-7.23.14-10.44,0-1.62.12-3.13.12-4.56a18.87,18.87,0,0,1,.44-4,13.08,13.08,0,0,1,2.47-5.21,9.08,9.08,0,0,1,1.05-1.17,2.72,2.72,0,0,1,.4-.37s-.1.17-.33.44-.57.67-1,1.22a13.58,13.58,0,0,0-2.27,5.17c-.53,2.34-.31,5.26-.44,8.46s-.07,6.75-.1,10.45c-.06,7.41-.12,14.11-.22,19,0,2.43-.11,4.39-.17,5.75,0,.68-.07,1.21-.09,1.56A2.22,2.22,0,0,1,332.38,399.59Z" style="fill:#455a64"></path><path d="M367.3,359.31a7.2,7.2,0,0,1,.87,2,26.15,26.15,0,0,1,1.27,10.39,7.53,7.53,0,0,1-.36,2.14c-.17,0,.24-3.31-.27-7.34S367.14,359.36,367.3,359.31Z" style="fill:#455a64"></path><path d="M371.14,360.24a7.07,7.07,0,0,1,.32,2.11,22.44,22.44,0,0,1-.26,5.17,31,31,0,0,1-1.33,5,8.94,8.94,0,0,1-.84,2,8.88,8.88,0,0,1,.49-2.08,50.32,50.32,0,0,0,1.17-5C371.34,363.51,371,360.25,371.14,360.24Z" style="fill:#455a64"></path><path d="M380.7,344.12l18.57,11.95,19.12,5.72A2.49,2.49,0,0,1,420,365h0a2.49,2.49,0,0,1-1.69,1.53c-4.95,1.3-23.21,6-24.65,5-1.67-1.21-22.43-12.4-22.43-12.4Z" style="fill:#E28E04"></path><g style="opacity:0.6000000000000001"><path d="M420,365l-27.74,5.65.88.54a3.74,3.74,0,0,0,2.53.51c2.35-.37,8.8-1.54,22.61-5.11A2.5,2.5,0,0,0,420,365Z" style="fill:#fff"></path></g><g style="opacity:0.6000000000000001"><path d="M388.19,362.37a1.5,1.5,0,0,1,1.89.67,1.44,1.44,0,0,1-.65,1.88,1.58,1.58,0,0,1-2-.72,1.5,1.5,0,0,1,.89-1.88" style="fill:#fff"></path></g><path d="M408.08,364.24a7.56,7.56,0,0,1-.5-2.79,7.47,7.47,0,0,1,1-2.66c0-.05-.36.11-.73.55a3.91,3.91,0,0,0-.8,2.06,3.81,3.81,0,0,0,.42,2.16C407.75,364.07,408,364.28,408.08,364.24Z" style="fill:#263238"></path><path d="M411.75,364.46a19.6,19.6,0,0,1,.23-2.37,20.5,20.5,0,0,1,1-2.18c-.06-.13-1.11.6-1.48,2A2.74,2.74,0,0,0,411.75,364.46Z" style="fill:#263238"></path><path d="M402.85,364.82a25.24,25.24,0,0,1,.11-3.69,26.11,26.11,0,0,1,1.16-3.51,5.46,5.46,0,0,0-1.68,3.41A5.55,5.55,0,0,0,402.85,364.82Z" style="fill:#263238"></path><path d="M396.32,361.35c.16,0,.38-1.41,1.23-2.93s1.94-2.48,1.84-2.61a6.18,6.18,0,0,0-3.07,5.54Z" style="fill:#263238"></path><path d="M390.24,357.65a12.25,12.25,0,0,1,1.2-3.09,12.43,12.43,0,0,1,2.36-2.32c0-.06-.42,0-1,.32a5.13,5.13,0,0,0-1.82,1.71,5.3,5.3,0,0,0-.86,2.35C390.08,357.26,390.17,357.66,390.24,357.65Z" style="fill:#263238"></path><path d="M390.26,353.89a2.1,2.1,0,0,0-.76-.5,6.32,6.32,0,0,0-2.43-.63,2.87,2.87,0,0,0-1.79.33,1,1,0,0,0-.39,1.07,1.57,1.57,0,0,0,.73.9,3.52,3.52,0,0,0,4.38-.93,4.07,4.07,0,0,0,.27-4.52,1.43,1.43,0,0,0-1-.67,1,1,0,0,0-1,.6,3.44,3.44,0,0,0-.12,1.8,7,7,0,0,0,.74,2.39,2.28,2.28,0,0,0,.52.75,11,11,0,0,1-.89-3.18,3.34,3.34,0,0,1,.15-1.57.53.53,0,0,1,.53-.33,1,1,0,0,1,.61.48,3.65,3.65,0,0,1-.28,3.92,3,3,0,0,1-3.7.84,1.15,1.15,0,0,1-.54-.6.53.53,0,0,1,.21-.6,2.58,2.58,0,0,1,1.5-.31A9.67,9.67,0,0,1,390.26,353.89Z" style="fill:#263238"></path><path d="M306.45,336.79a8.48,8.48,0,0,1-2.39-.61,33.42,33.42,0,0,1-5.43-2.42,32.89,32.89,0,0,1-4.9-3.37,9.59,9.59,0,0,1-1.76-1.72,14.62,14.62,0,0,1,2,1.43,46.47,46.47,0,0,0,4.93,3.2C302.9,335.56,306.5,336.64,306.45,336.79Z" style="fill:#455a64"></path><path d="M396.21,264.08A82.63,82.63,0,0,1,402,288.3c.68,7.57,3.22,32,.31,36.43s-31.92,11.12-31.92,11.12l-12-10.93,23.41-17.61-2.17-16,1.73-11.2Z" style="fill:#ffbe9d"></path><path d="M390.23,310.14a13.27,13.27,0,0,0-4.17-2.41,13,13,0,0,0-4.81-.24,2.82,2.82,0,0,1,1.39-.48,8.08,8.08,0,0,1,6.68,2C390,309.61,390.28,310.11,390.23,310.14Z" style="fill:#eb996e"></path></g><g id="freepik--character-1--inject-14"><path d="M192,432.92,185.42,456s21.26,14.41,20.46,18.8l-45.21-11.1,8.73-36.39Z" style="fill:#E28E04"></path><path d="M171.92,450.62a1.9,1.9,0,0,0-1.8,1.79,1.83,1.83,0,0,0,1.76,1.79,2,2,0,0,0,1.89-1.91,1.89,1.89,0,0,0-2-1.66" style="fill:#e0e0e0"></path><g style="opacity:0.6000000000000001"><path d="M160.67,463.71l1-3.64,43,12s1.8,1.37,1.22,2.74Z" style="fill:#fff"></path></g><path d="M186.21,456c-.07.22-1.19.05-2.45.49s-2.07,1.23-2.25,1.09.46-1.33,2-1.84S186.3,455.77,186.21,456Z" style="fill:#263238"></path><path d="M190.47,459.08c0,.23-1.05.37-2,1.12s-1.44,1.68-1.66,1.62-.05-1.35,1.19-2.26S190.51,458.87,190.47,459.08Z" style="fill:#263238"></path><path d="M191.77,465.42c-.21,0-.25-1.18.61-2.25s2-1.3,2.07-1.09-.75.69-1.45,1.58S192,465.45,191.77,465.42Z" style="fill:#263238"></path><path d="M187.12,450.53c-.15.18-1.08-.37-2.35-.6s-2.34-.06-2.41-.28,1.06-.78,2.55-.49S187.27,450.38,187.12,450.53Z" style="fill:#263238"></path><path d="M176.15,438.91l-.94,24s24.06,9,24.31,13.46L153,476.19l-.06-37.42Z" style="fill:#E28E04"></path><path d="M160.82,460.82A1.9,1.9,0,0,0,159.5,463a1.82,1.82,0,0,0,2.13,1.32A2,2,0,0,0,163,462a1.89,1.89,0,0,0-2.37-1.13" style="fill:#e0e0e0"></path><g style="opacity:0.6000000000000001"><path d="M153,476.19l.15-3.77L197.69,474s2.07.91,1.83,2.37Z" style="fill:#fff"></path></g><path d="M176,462.65c0,.23-1.14.33-2.26,1.06s-1.72,1.68-1.93,1.59.13-1.41,1.51-2.26S176,462.44,176,462.65Z" style="fill:#263238"></path><path d="M180.84,464.69c0,.22-.93.6-1.71,1.56s-1,2-1.23,2-.36-1.3.62-2.48S180.84,464.47,180.84,464.69Z" style="fill:#263238"></path><path d="M183.59,470.54c-.2,0-.51-1.09.07-2.33s1.66-1.74,1.75-1.55-.56.86-1,1.89S183.82,470.52,183.59,470.54Z" style="fill:#263238"></path><path d="M175.57,457.16c-.09.21-1.14-.11-2.42,0s-2.29.48-2.41.29.85-1,2.37-1.08S175.69,457,175.57,457.16Z" style="fill:#263238"></path><path d="M175.21,456a9.9,9.9,0,0,0-.13,1.88c0,1.19-.07,2.91-.1,5V463l.15.06c2.39.95,5.32,2.11,8.43,3.46,4.05,1.74,7.64,3.49,10.19,4.84l3,1.64a6.2,6.2,0,0,0,1.12.57,5,5,0,0,0-1-.75c-.68-.45-1.68-1.07-2.93-1.8a104,104,0,0,0-10.16-5c-3.13-1.35-6.07-2.48-8.49-3.37l.14.21c0-2.08-.05-3.8-.09-5A9.9,9.9,0,0,0,175.21,456Z" style="fill:#263238"></path><path d="M146.6,262.6l.07,15.51,5.42,73.83s-3,35.84-4.87,56.07c-1.61,17.57,1.28,48.14,1.28,48.14l29.64-.13,10.15-102,6.3-63.64,11.32-29Z" style="fill:#263238"></path><polygon points="223.81 260.94 219.42 365.17 189.78 442.44 188.42 447.1 170.7 442.89 183.06 260.29 223.81 260.94" style="fill:#263238"></polygon><path d="M194.52,291.09a2.85,2.85,0,0,1,0,.43c0,.31,0,.73,0,1.26,0,1.13-.07,2.75-.13,4.83-.1,4.19-.37,10.26-.77,17.75-.82,15-2.4,35.66-4.9,58.42s-5.2,43.33-7.2,58.2c-1,7.41-1.84,13.41-2.41,17.6-.3,2.05-.53,3.66-.69,4.78-.08.53-.14.94-.19,1.24a2,2,0,0,1-.08.42,2.22,2.22,0,0,1,0-.42c0-.31.07-.73.13-1.25.14-1.13.33-2.74.58-4.8.53-4.19,1.3-10.21,2.24-17.63,1.9-14.88,4.58-35.43,7-58.2s4.14-43.41,5.06-58.38c.45-7.49.78-13.55.95-17.74.1-2.07.17-3.69.23-4.83,0-.53,0-.94.07-1.25A2.14,2.14,0,0,1,194.52,291.09Z" style="fill:#455a64"></path><path d="M192.77,285s0,.1.1.22a.63.63,0,0,0,.68,0,1.3,1.3,0,0,0,.49-.94c.06-.41.12-.84.18-1.3.27-1.91.6-4.56.93-7.49s.59-5.59.76-7.51a16.36,16.36,0,0,0,.15-3.13,19.09,19.09,0,0,0-.54,3.08c-.26,1.92-.59,4.57-.92,7.5s-.6,5.58-.76,7.51c-.12.94,0,1.82-.4,2.1a.54.54,0,0,1-.51.06C192.82,285.11,192.79,285,192.77,285Z" style="fill:#455a64"></path><path d="M189.61,266.28s-.15-.08-.45,0a1.91,1.91,0,0,0-1.39,2.49,2.13,2.13,0,0,0,1.86,1.35,2,2,0,0,0,1.9-1.27,1.86,1.86,0,0,0-.16-1.86,1.56,1.56,0,0,0-1.08-.65c-.3,0-.45.07-.44.1a1.7,1.7,0,0,1,1.19.76,1.49,1.49,0,0,1,0,1.44,1.55,1.55,0,0,1-1.42.93,1.67,1.67,0,0,1-1.41-1,1.47,1.47,0,0,1,.17-1.42C188.94,266.36,189.64,266.37,189.61,266.28Z" style="fill:#455a64"></path><path d="M216.2,264.48a4.31,4.31,0,0,0-.33,2,8.75,8.75,0,0,0,1.38,4.71,8.85,8.85,0,0,0,3.69,3.24,4.09,4.09,0,0,0,2,.53c0-.08-.73-.29-1.79-.88a9.62,9.62,0,0,1-3.41-3.18,9.81,9.81,0,0,1-1.46-4.44C216.16,265.26,216.29,264.5,216.2,264.48Z" style="fill:#455a64"></path><path d="M207.8,268.08c.14.05.57-.9.77-2.15a3.88,3.88,0,0,0-.06-2.28c-.16,0-.29,1-.48,2.19A6.26,6.26,0,0,0,207.8,268.08Z" style="fill:#455a64"></path><path d="M204.53,268.09a5.49,5.49,0,0,0,.72-2.28,5.35,5.35,0,0,0,.18-2.39,10.4,10.4,0,0,0-.9,4.67Z" style="fill:#455a64"></path><path d="M171.67,268.09c.15,0,.43-.66.62-1.54s.23-1.61.08-1.64-.42.65-.62,1.53S171.52,268.05,171.67,268.09Z" style="fill:#455a64"></path><path d="M168.45,269.21a9.87,9.87,0,0,0,.87-6,61.16,61.16,0,0,0-.87,6Z" style="fill:#455a64"></path><path d="M146.18,280.2a2.8,2.8,0,0,0,.89.35,8.29,8.29,0,0,0,2.6.26,11.76,11.76,0,0,0,7.67-3.66,17.85,17.85,0,0,0,4.07-7.52,25,25,0,0,0,.56-2.54,2.75,2.75,0,0,0,.07-.95c-.09,0-.33,1.31-1,3.37a19.09,19.09,0,0,1-4.1,7.26,11.9,11.9,0,0,1-7.3,3.65A14.86,14.86,0,0,1,146.18,280.2Z" style="fill:#455a64"></path><path d="M177.2,108.4a86.56,86.56,0,0,1-5.78-13.53,29.81,29.81,0,0,1-1-14.54c.15-.73,1.64-5.68,2.39-5.72.53,0-.17,4.49.16,4.91,3.18,4,4.64,9.07,5,14.14a66.79,66.79,0,0,1-.77,14.74" style="fill:#263238"></path><path d="M208.46,131.23c-.48-3.43-.85-6.15-.82-6.15s11.59-3,10.61-14.72c-.47-5.69-2.39-17.33-4.25-27.83a22,22,0,0,0-23.77-18.07l-1.13.11C176.93,66.45,171.73,77.83,174,90l6.4,42.6,32.5,28.75Z" style="fill:#7f544e"></path><path d="M207.64,125.08A28.53,28.53,0,0,1,191.9,122s4.54,8.2,16.18,6Z" style="fill:#633a34"></path><path d="M212,92.48a1.68,1.68,0,0,1-1.46,1.85A1.6,1.6,0,0,1,208.65,93a1.68,1.68,0,0,1,1.45-1.85A1.62,1.62,0,0,1,212,92.48Z" style="fill:#263238"></path><path d="M212,87.65c-.19.24-1.55-.58-3.36-.41s-3,1.21-3.26,1,.07-.51.61-1a4.61,4.61,0,0,1,2.58-1.08,4.48,4.48,0,0,1,2.7.6C211.82,87.16,212,87.54,212,87.65Z" style="fill:#263238"></path><path d="M195.19,94.47a1.7,1.7,0,0,1-1.46,1.85A1.63,1.63,0,0,1,191.85,95a1.69,1.69,0,0,1,1.46-1.85A1.61,1.61,0,0,1,195.19,94.47Z" style="fill:#263238"></path><path d="M194.32,90.07c-.19.23-1.56-.59-3.36-.41s-3.05,1.21-3.26,1,.06-.51.6-1a4.57,4.57,0,0,1,2.59-1.08,4.43,4.43,0,0,1,2.7.6C194.18,89.58,194.41,90,194.32,90.07Z" style="fill:#263238"></path><path d="M202.12,103.33a12.11,12.11,0,0,1,2.89-.8c.45-.1.88-.23.93-.55a2.38,2.38,0,0,0-.44-1.34l-1.7-3.38c-2.37-4.83-4.14-8.81-3.94-8.9s2.28,3.73,4.65,8.56l1.64,3.41a2.65,2.65,0,0,1,.41,1.79,1.14,1.14,0,0,1-.69.74,3.43,3.43,0,0,1-.77.19A11.32,11.32,0,0,1,202.12,103.33Z" style="fill:#263238"></path><path d="M193.52,82.74c-.13.51-2,.45-4.06.91s-3.75,1.19-4.08.78c-.14-.2.11-.69.76-1.23a7.21,7.21,0,0,1,6.19-1.29C193.14,82.15,193.57,82.5,193.52,82.74Z" style="fill:#263238"></path><path d="M210.63,81.71c-.28.44-1.57.13-3.06.26s-2.74.54-3.08.13c-.14-.19,0-.62.53-1.06a4.47,4.47,0,0,1,4.95-.32C210.54,81.09,210.75,81.5,210.63,81.71Z" style="fill:#263238"></path><path d="M175.74,98.56c-.21-.07-8.31-1.62-7.29,6.4s8.86,5.33,8.85,5.1S175.74,98.56,175.74,98.56Z" style="fill:#7f544e"></path><path d="M174.46,107.34s-.13.11-.35.25a1.39,1.39,0,0,1-1,.16c-.89-.21-1.77-1.46-2-2.9a4.78,4.78,0,0,1,.14-2,1.64,1.64,0,0,1,.91-1.21.73.73,0,0,1,.88.28c.13.21.1.38.15.39s.15-.16,0-.48a1,1,0,0,0-.38-.46,1,1,0,0,0-.8-.11,2,2,0,0,0-1.3,1.43,4.72,4.72,0,0,0-.2,2.3c.26,1.6,1.28,3,2.48,3.2a1.53,1.53,0,0,0,1.25-.38C174.47,107.53,174.49,107.35,174.46,107.34Z" style="fill:#633a34"></path><path d="M207,70c1.19-.89-3.27-4.56-6.65-5.57-5.11-1.52-12.64-1.86-16.91,0-5.13,2.25-9.21,5.51-11.23,10.74a31.8,31.8,0,0,0-1.34,16.56,9.67,9.67,0,0,0,1.8,4.74c1.36,1.61,3.66,2.44,3.9,4.89a3.35,3.35,0,0,0,1.16,2.33c1.68,1.36,3.27-.35,3.9-1.93,1.33-3.38,1-7.15.68-10.76a23.85,23.85,0,0,0-1.55-7.55c-.57-1.28-1.38-2.45-1.88-3.76a4.88,4.88,0,0,1,0-4.08,5.74,5.74,0,0,1,.56-.74,8.42,8.42,0,0,1,8.07-2.71c4.73,1,12.75,2.31,14.56.5,2.59-2.59,3.08-4.12,3.08-4.12Z" style="fill:#263238"></path><path d="M206,109.36a3.38,3.38,0,0,0-.66-2h0a2.88,2.88,0,0,0-3.38.72,2.57,2.57,0,0,0,.2,3.38,2.34,2.34,0,0,0,3.31-.22A2.87,2.87,0,0,0,206,109.36Z" style="fill:#633a34"></path><path d="M205.28,111.47c.05,0-.42.57-1.48.65a2.57,2.57,0,0,1-1.77-.51,2.5,2.5,0,0,1-.83-2.09,2.62,2.62,0,0,1,1.06-2,3,3,0,0,1,1.71-.62,2.08,2.08,0,0,1,1.54.53,10.2,10.2,0,0,0-1.52-.16,2.54,2.54,0,0,0-2.27,2.27,2.07,2.07,0,0,0,.62,1.69,2.28,2.28,0,0,0,1.45.51A5.3,5.3,0,0,0,205.28,111.47Z" style="fill:#263238"></path><path d="M233,190.16s3.61,54.93,1.59,62.12-12.36,22.38-12.36,22.38a10.65,10.65,0,0,1-5.34-4.92c-1.72-3.54-1.06-3.25-1.06-3.25s8.35-5.92,6.47-14.76-1.6-60.81-1.6-60.81Z" style="fill:#7f544e"></path><path d="M225.42,147.48s6.4,5.38,7.29,16.19c.8,9.74,1.92,28.43,1.92,28.43l-11.58-.25Z" style="fill:#E28E04"></path><path d="M227.26,150.11c-1-3.85-18.28-15.26-18.28-15.26s1.2,12.37-5.06,13.33-24.31-20.58-24.31-20.58l-22.88,6.6a34.75,34.75,0,0,0-7.41,9.41c-2.63,5.3-4.38,75.29-4.38,75.29l2.94,30.79a13.7,13.7,0,0,1-1.93,6c-1.68,2.41-2.16,10.8,6.08,10.44,7.8-.33,39.43,5,55.06,4.06s17.93-2.05,18-11c.1-8.69-2.91-14.33-3.88-30.21S228.22,154,227.26,150.11Z" style="fill:#E28E04"></path><path d="M224.29,160.13a12.31,12.31,0,0,1,0,1.78c0,1.14,0,2.79-.1,4.83-.11,4.08-.35,9.72-.66,15.94s-.6,11.78-.81,15.93c-.11,2-.19,3.61-.26,4.83a11.15,11.15,0,0,1-.16,1.77,10.61,10.61,0,0,1,0-1.77c0-1.15,0-2.8.09-4.84.12-4.08.35-9.72.66-15.94s.6-11.78.82-15.93c.1-2,.19-3.61.26-4.83A11.15,11.15,0,0,1,224.29,160.13Z" style="fill:#263238"></path><path d="M222.93,145.94a9.39,9.39,0,0,1,1.56,4.35,9.56,9.56,0,0,1-.19,4.62c-.16,0,.06-2.07-.32-4.54S222.79,146,222.93,145.94Z" style="fill:#263238"></path><path d="M203.43,257.43a10.35,10.35,0,0,1-1.72.35c-1.12.19-2.74.4-4.76.59a86.15,86.15,0,0,1-31.35-2.89c-1.94-.56-3.5-1.06-4.56-1.46a12.74,12.74,0,0,1-1.63-.65,10.33,10.33,0,0,1,1.69.46c1.08.33,2.65.78,4.6,1.29a97.53,97.53,0,0,0,15.49,2.73,98.7,98.7,0,0,0,15.73.16c2-.15,3.64-.3,4.76-.44A13.12,13.12,0,0,1,203.43,257.43Z" style="fill:#263238"></path><path d="M210.57,246.51a4.27,4.27,0,0,1-.85.62c-.57.38-1.41.88-2.47,1.47a58.79,58.79,0,0,1-17.76,6.33c-1.2.21-2.17.35-2.84.41a4,4,0,0,1-1.05.06c0-.08,1.46-.32,3.81-.83a76.65,76.65,0,0,0,9-2.58,72.36,72.36,0,0,0,8.63-3.72C209.23,247.19,210.52,246.44,210.57,246.51Z" style="fill:#263238"></path><path d="M193,223a4.45,4.45,0,0,1,.47-.36l1.38-1,5.22-3.79c4.46-3.29,10.74-8.11,17.87-14.3l.09.39L190.62,197l-2.47-.62-.52-.13.42-.33a105.93,105.93,0,0,1,27.2-15.11v.4l-17.38-7.74L193,171.33l-1.26-.59a2,2,0,0,1-.42-.22,4.5,4.5,0,0,1,.45.16l1.28.53,4.88,2.08,17.46,7.57.48.21-.49.18a107.24,107.24,0,0,0-27,15.12l-.09-.46,2.47.63,27.37,7,.43.11-.33.28c-7.18,6.17-13.5,11-18,14.18-2.26,1.62-4.06,2.85-5.3,3.68l-1.42.94A3.24,3.24,0,0,1,193,223Z" style="fill:#fff"></path><g style="opacity:0.30000000000000004"><path d="M220.23,199.94a7.5,7.5,0,0,0-4.61-.95c-12.6.32-24.49,5.64-35.75,11.3s-22,11.89-34.36,14.19h0c0,3,2.4,4.53,5.26,5.33,5.46,1.51,11.36.68,16.68-1.28s10.15-5,15-8L206,205.69c2.5-1.57,5.38-3.21,8.24-2.48,1.18.3,2.22,1,3.38,1.36a3.32,3.32,0,0,0,3.42-.49C222.13,202.93,221.54,200.86,220.23,199.94Z"></path></g><path d="M141.33,181.82s-.53,31.31,0,36.84,5.11,7.7,12.08,7,44.62-18.79,52.21-23.4l-3.27-12.61s-27.49,6.77-34.31,9c0,0,3.41-5,2.69-16.81C169.85,167.44,141.33,181.82,141.33,181.82Z" style="fill:#7f544e"></path><path d="M212.21,183.74A18.15,18.15,0,0,0,206.1,187c-2.28,2.13-7.71,4.69-7.71,4.69l4.81,11.5s5.31-2.41,8.86-2.62,13.21,2.62,15.91,2.62,19.59-8.78,19.59-8.78a7.21,7.21,0,0,0-3-1.31,10.57,10.57,0,0,0-4,.43H227.34l-8.12-3.24a1,1,0,0,1-.22-1.79,4.43,4.43,0,0,1,2.49-.77c2.43,0,6.7-.53,6.91-2.38s-1.25-2.17-4.94-2.17S215.05,182.61,212.21,183.74Z" style="fill:#7f544e"></path><path d="M168,198.63c0,.08-1,0-2.56.11a13.36,13.36,0,0,0-5.76,1.82,13.54,13.54,0,0,0-4.2,4.36c-.85,1.33-1.25,2.23-1.32,2.2a7.33,7.33,0,0,1,1-2.39,11.69,11.69,0,0,1,10.26-6.36A6.8,6.8,0,0,1,168,198.63Z" style="fill:#633a34"></path><path d="M240.72,197.2c0,.08-1.2.27-3.13.7a34.77,34.77,0,0,1-7.71,1.09,23,23,0,0,1-7.65-1.49,14.79,14.79,0,0,1-2.13-1,2.67,2.67,0,0,1-.71-.51c.05-.08,1.11.56,3,1.2a26.22,26.22,0,0,0,7.53,1.31,43.36,43.36,0,0,0,7.63-.93A13.49,13.49,0,0,1,240.72,197.2Z" style="fill:#633a34"></path><path d="M240.72,197.2a2.57,2.57,0,0,0,1.36-.73,1.61,1.61,0,0,0,.38-1.6,1.63,1.63,0,0,0-1.78-1h0l-8,0-5.28-.06h-.09c-2.38-1-4.4-1.82-5.82-2.43a15.18,15.18,0,0,1-2.21-1,13,13,0,0,1,2.32.77c1.45.53,3.5,1.31,5.89,2.25l-.09,0,5.28,0,8,.11h0a2,2,0,0,1,2.14,1.32,1.9,1.9,0,0,1-.53,1.87A1.68,1.68,0,0,1,240.72,197.2Z" style="fill:#633a34"></path><path d="M177.69,128.22s-17.47,4.36-21,6S142.17,144.32,141.1,158s-1.76,23.8-1.76,23.8l34,.11Z" style="fill:#E28E04"></path><path d="M173.36,181.93c0,.15-7.74.26-17.29.26s-17.29-.11-17.29-.26,7.74-.26,17.29-.26S173.36,181.79,173.36,181.93Z" style="fill:#263238"></path><path d="M173.93,158c.14,0,.12,5.28-.06,11.78s-.43,11.76-.58,11.76-.11-5.28.06-11.78S173.78,158,173.93,158Z" style="fill:#263238"></path><path d="M247.56,194.44a6.6,6.6,0,0,1-1.23.73c-.8.43-2,1.05-3.43,1.79-2.93,1.48-7,3.52-11.53,5.55-.57.25-1.15.5-1.72.71a4.65,4.65,0,0,1-.92.27,6,6,0,0,1-.95,0c-1.19-.1-2.31-.29-3.38-.47-2.13-.38-4-.78-5.64-1.13s-2.89-.65-3.78-.88a6.88,6.88,0,0,1-1.37-.4,6.83,6.83,0,0,1,1.41.21l3.81.71c1.61.3,3.52.66,5.65,1,1.06.17,2.19.35,3.34.44a5.81,5.81,0,0,0,.83,0,4,4,0,0,0,.82-.24c.56-.21,1.12-.46,1.69-.7,4.55-2,8.61-4,11.57-5.41l3.51-1.64A8.34,8.34,0,0,1,247.56,194.44Z" style="fill:#633a34"></path><path d="M173.09,146.13c-.09,0-.37-1.19-1.28-2.95a15.61,15.61,0,0,0-12.19-8.4c-2-.23-3.21-.06-3.22-.15a2.66,2.66,0,0,1,.86-.18,12.69,12.69,0,0,1,2.39,0,14.94,14.94,0,0,1,12.49,8.6,12.7,12.7,0,0,1,.81,2.25A2.46,2.46,0,0,1,173.09,146.13Z" style="fill:#263238"></path></g></svg>